<?xml version="1.0" encoding="UTF-8"?>
<!DOCTYPE svg PUBLIC "-//W3C//DTD SVG 1.1//EN" "http://www.w3.org/Graphics/SVG/1.1/DTD/svg11.dtd">
<svg xmlns="http://www.w3.org/2000/svg" version="1.1" width="1200px" height="630px" style="shape-rendering:geometricPrecision; text-rendering:geometricPrecision; image-rendering:optimizeQuality; fill-rule:evenodd; clip-rule:evenodd" xmlns:xlink="http://www.w3.org/1999/xlink">
<g><path style="opacity:0.012" fill="#4e5ef0" d="M 627.5,4.5 C 629.199,4.33982 630.866,4.50649 632.5,5C 631.944,5.38258 631.611,5.88258 631.5,6.5C 631.167,6.5 630.833,6.5 630.5,6.5C 629.5,5.83333 628.5,5.16667 627.5,4.5 Z"/></g>
<g><path style="opacity:0.998" fill="#28a5fd" d="M 590.5,4.5 C 602.833,4.5 615.167,4.5 627.5,4.5C 628.5,5.16667 629.5,5.83333 630.5,6.5C 629.009,7.45669 627.176,8.12336 625,8.5C 623.833,8.16667 622.667,7.83333 621.5,7.5C 621.709,6.91395 622.043,6.41395 622.5,6C 620.167,5.33333 617.833,5.33333 615.5,6C 616.641,6.74117 616.641,7.57451 615.5,8.5C 617.766,9.31416 620.1,9.81416 622.5,10C 622.167,10.3333 621.833,10.6667 621.5,11C 625.652,14.6511 629.652,18.4844 633.5,22.5C 634.689,23.4287 636.022,23.762 637.5,23.5C 637.238,24.9778 637.571,26.3112 638.5,27.5C 641.5,30.5 644.5,33.5 647.5,36.5C 648.689,37.4287 650.022,37.762 651.5,37.5C 651.238,38.9778 651.571,40.3112 652.5,41.5C 674.5,63.5 696.5,85.5 718.5,107.5C 719.429,108.689 719.762,110.022 719.5,111.5C 720.978,111.238 722.311,111.571 723.5,112.5C 728.895,117.392 733.728,122.725 738,128.5C 739.518,128.943 740.685,128.276 741.5,126.5C 742.107,126.624 742.44,126.957 742.5,127.5C 742.047,128.458 741.381,129.292 740.5,130C 741.252,130.671 741.586,131.504 741.5,132.5C 736.141,138.193 730.474,143.527 724.5,148.5C 722.426,146.73 722.759,144.896 725.5,143C 723.845,141.556 723.178,139.722 723.5,137.5C 722.022,137.762 720.689,137.429 719.5,136.5C 709.833,126.833 700.167,117.167 690.5,107.5C 689.571,106.311 689.238,104.978 689.5,103.5C 686.052,102.423 683.052,100.423 680.5,97.5C 679.571,96.3112 679.238,94.9778 679.5,93.5C 678.022,93.762 676.689,93.4287 675.5,92.5C 673.167,90.1667 670.833,87.8333 668.5,85.5C 667.571,84.3112 667.238,82.9778 667.5,81.5C 666.022,81.762 664.689,81.4287 663.5,80.5C 659.167,76.1667 654.833,71.8333 650.5,67.5C 649.571,66.3112 649.238,64.9778 649.5,63.5C 648.022,63.762 646.689,63.4287 645.5,62.5C 628.167,45.1667 610.833,27.8333 593.5,10.5C 589.826,9.76746 586.159,9.1008 582.5,8.5C 581.604,9.50633 580.938,9.50633 580.5,8.5C 584.309,8.00391 587.642,6.67057 590.5,4.5 Z"/></g>
<g><path style="opacity:0.004" fill="#3335bd" d="M 644.5,6.5 C 646.179,6.28519 647.179,6.95186 647.5,8.5C 646.29,8.06795 645.29,7.40128 644.5,6.5 Z"/></g>
<g><path style="opacity:0.998" fill="#2d99fd" d="M 576.5,4.5 C 575.375,6.12879 574.041,7.62879 572.5,9C 573.833,9.66667 573.833,10.3333 572.5,11C 576.531,12.5233 578.865,15.3566 579.5,19.5C 580.873,19.3433 582.207,19.51 583.5,20C 586.278,22.3097 588.278,25.143 589.5,28.5C 590.689,29.4287 592.022,29.762 593.5,29.5C 593.5,30.8333 593.5,32.1667 593.5,33.5C 594.833,33.5 596.167,33.5 597.5,33.5C 597.5,34.8333 597.5,36.1667 597.5,37.5C 598.833,37.5 600.167,37.5 601.5,37.5C 601.5,38.8333 601.5,40.1667 601.5,41.5C 602.833,41.5 604.167,41.5 605.5,41.5C 605.343,42.8734 605.51,44.2068 606,45.5C 613.319,52.3187 620.486,59.3187 627.5,66.5C 628.689,67.4287 630.022,67.762 631.5,67.5C 631.5,68.8333 631.5,70.1667 631.5,71.5C 632.978,71.238 634.311,71.5713 635.5,72.5C 639.619,77.2411 643.619,82.0745 647.5,87C 649.169,88.669 651.169,89.5023 653.5,89.5C 653.5,90.8333 653.5,92.1667 653.5,93.5C 654.978,93.238 656.311,93.5713 657.5,94.5C 660.128,96.935 662.128,99.7683 663.5,103C 665.65,104.649 667.65,106.482 669.5,108.5C 670.689,109.429 672.022,109.762 673.5,109.5C 673.5,110.833 673.5,112.167 673.5,113.5C 678.167,114.167 680.833,116.833 681.5,121.5C 685.5,121.5 687.5,123.5 687.5,127.5C 688.833,127.5 690.167,127.5 691.5,127.5C 691.238,128.978 691.571,130.311 692.5,131.5C 695.857,132.722 698.69,134.722 701,137.5C 705.297,141.454 708.797,145.954 711.5,151C 712.872,151.402 714.205,151.902 715.5,152.5C 716.192,151.975 716.692,151.308 717,150.5C 717.029,153.02 715.863,155.02 713.5,156.5C 713.863,157.183 714.196,157.85 714.5,158.5C 711.696,163.145 707.696,166.145 702.5,167.5C 700.265,167.795 698.265,167.461 696.5,166.5C 696.937,164.926 697.937,163.759 699.5,163C 695.861,159.704 693.028,155.871 691,151.5C 689.509,149.996 687.676,149.163 685.5,149C 681.349,144.348 677.015,139.848 672.5,135.5C 671.571,134.311 671.238,132.978 671.5,131.5C 670.167,131.5 668.833,131.5 667.5,131.5C 667.762,130.022 667.429,128.689 666.5,127.5C 664.5,126.167 662.5,124.833 660.5,123.5C 659.571,122.311 659.238,120.978 659.5,119.5C 655.5,119.5 653.5,117.5 653.5,113.5C 652.167,113.5 650.833,113.5 649.5,113.5C 649.012,108.673 646.345,105.673 641.5,104.5C 638.48,99.8006 634.98,95.4673 631,91.5C 626.138,89.1493 621.972,85.8159 618.5,81.5C 617.571,80.3112 617.238,78.9778 617.5,77.5C 616.167,77.5 614.833,77.5 613.5,77.5C 613.5,76.1667 613.5,74.8333 613.5,73.5C 608.628,73.1206 605.962,70.4539 605.5,65.5C 601.758,64.7823 598.758,62.7823 596.5,59.5C 595.571,58.3112 595.238,56.9778 595.5,55.5C 591.5,55.5 589.5,53.5 589.5,49.5C 584.833,48.8333 582.167,46.1667 581.5,41.5C 580.127,41.6567 578.793,41.49 577.5,41C 574.833,37.3333 572.167,33.6667 569.5,30C 568.207,29.51 566.873,29.3433 565.5,29.5C 565.5,28.1667 565.5,26.8333 565.5,25.5C 560.833,24.8333 558.167,22.1667 557.5,17.5C 556.167,17.5 554.833,17.5 553.5,17.5C 553.808,14.2871 552.641,13.2871 550,14.5C 548.189,13.9221 546.355,13.4221 544.5,13C 547.47,12.6921 549.47,11.1921 550.5,8.5C 559.858,7.02043 568.525,5.6871 576.5,4.5 Z"/></g>
<g><path style="opacity:1" fill="#2a9efd" d="M 576.5,4.5 C 581.167,4.5 585.833,4.5 590.5,4.5C 587.642,6.67057 584.309,8.00391 580.5,8.5C 580.938,9.50633 581.604,9.50633 582.5,8.5C 586.159,9.1008 589.826,9.76746 593.5,10.5C 610.833,27.8333 628.167,45.1667 645.5,62.5C 646.689,63.4287 648.022,63.762 649.5,63.5C 649.238,64.9778 649.571,66.3112 650.5,67.5C 654.833,71.8333 659.167,76.1667 663.5,80.5C 664.689,81.4287 666.022,81.762 667.5,81.5C 667.238,82.9778 667.571,84.3112 668.5,85.5C 670.833,87.8333 673.167,90.1667 675.5,92.5C 676.689,93.4287 678.022,93.762 679.5,93.5C 679.238,94.9778 679.571,96.3112 680.5,97.5C 683.052,100.423 686.052,102.423 689.5,103.5C 689.238,104.978 689.571,106.311 690.5,107.5C 700.167,117.167 709.833,126.833 719.5,136.5C 720.689,137.429 722.022,137.762 723.5,137.5C 723.178,139.722 723.845,141.556 725.5,143C 722.759,144.896 722.426,146.73 724.5,148.5C 721.833,152.5 718.5,155.833 714.5,158.5C 714.196,157.85 713.863,157.183 713.5,156.5C 715.863,155.02 717.029,153.02 717,150.5C 716.692,151.308 716.192,151.975 715.5,152.5C 714.205,151.902 712.872,151.402 711.5,151C 708.797,145.954 705.297,141.454 701,137.5C 698.69,134.722 695.857,132.722 692.5,131.5C 691.571,130.311 691.238,128.978 691.5,127.5C 690.167,127.5 688.833,127.5 687.5,127.5C 687.5,123.5 685.5,121.5 681.5,121.5C 680.833,116.833 678.167,114.167 673.5,113.5C 673.5,112.167 673.5,110.833 673.5,109.5C 672.022,109.762 670.689,109.429 669.5,108.5C 667.65,106.482 665.65,104.649 663.5,103C 662.128,99.7683 660.128,96.935 657.5,94.5C 656.311,93.5713 654.978,93.238 653.5,93.5C 653.5,92.1667 653.5,90.8333 653.5,89.5C 651.169,89.5023 649.169,88.669 647.5,87C 643.619,82.0745 639.619,77.2411 635.5,72.5C 634.311,71.5713 632.978,71.238 631.5,71.5C 631.5,70.1667 631.5,68.8333 631.5,67.5C 630.022,67.762 628.689,67.4287 627.5,66.5C 620.486,59.3187 613.319,52.3187 606,45.5C 605.51,44.2068 605.343,42.8734 605.5,41.5C 604.167,41.5 602.833,41.5 601.5,41.5C 601.5,40.1667 601.5,38.8333 601.5,37.5C 600.167,37.5 598.833,37.5 597.5,37.5C 597.5,36.1667 597.5,34.8333 597.5,33.5C 596.167,33.5 594.833,33.5 593.5,33.5C 593.5,32.1667 593.5,30.8333 593.5,29.5C 592.022,29.762 590.689,29.4287 589.5,28.5C 588.278,25.143 586.278,22.3097 583.5,20C 582.207,19.51 580.873,19.3433 579.5,19.5C 578.865,15.3566 576.531,12.5233 572.5,11C 573.833,10.3333 573.833,9.66667 572.5,9C 574.041,7.62879 575.375,6.12879 576.5,4.5 Z"/></g>
<g><path style="opacity:0.027" fill="#5e5aff" d="M 534.5,10.5 C 534.167,11.5 533.5,12.1667 532.5,12.5C 532.5,11.1667 533.167,10.5 534.5,10.5 Z"/></g>
<g><path style="opacity:1" fill="#24abfd" d="M 630.5,6.5 C 630.833,6.5 631.167,6.5 631.5,6.5C 635.833,6.5 640.167,6.5 644.5,6.5C 645.29,7.40128 646.29,8.06795 647.5,8.5C 648.5,8.5 649.5,8.5 650.5,8.5C 650.5,8.83333 650.5,9.16667 650.5,9.5C 650.918,10.2216 651.584,10.7216 652.5,11C 650.801,11.3932 649.301,10.8932 648,9.5C 647.5,9.66667 647,9.83333 646.5,10C 647.308,10.3076 647.975,10.8076 648.5,11.5C 647.011,11.5331 645.678,12.0331 644.5,13C 646.78,13.2326 648.78,14.066 650.5,15.5C 684.548,49.548 718.548,83.548 752.5,117.5C 749.5,121.167 746.167,124.5 742.5,127.5C 742.44,126.957 742.107,126.624 741.5,126.5C 740.685,128.276 739.518,128.943 738,128.5C 733.728,122.725 728.895,117.392 723.5,112.5C 722.311,111.571 720.978,111.238 719.5,111.5C 719.762,110.022 719.429,108.689 718.5,107.5C 696.5,85.5 674.5,63.5 652.5,41.5C 651.571,40.3112 651.238,38.9778 651.5,37.5C 650.022,37.762 648.689,37.4287 647.5,36.5C 644.5,33.5 641.5,30.5 638.5,27.5C 637.571,26.3112 637.238,24.9778 637.5,23.5C 636.022,23.762 634.689,23.4287 633.5,22.5C 629.652,18.4844 625.652,14.6511 621.5,11C 621.833,10.6667 622.167,10.3333 622.5,10C 620.1,9.81416 617.766,9.31416 615.5,8.5C 616.641,7.57451 616.641,6.74117 615.5,6C 617.833,5.33333 620.167,5.33333 622.5,6C 622.043,6.41395 621.709,6.91395 621.5,7.5C 622.667,7.83333 623.833,8.16667 625,8.5C 627.176,8.12336 629.009,7.45669 630.5,6.5 Z"/></g>
<g><path style="opacity:0.995" fill="#3092fd" d="M 550.5,8.5 C 549.47,11.1921 547.47,12.6921 544.5,13C 546.355,13.4221 548.189,13.9221 550,14.5C 552.641,13.2871 553.808,14.2871 553.5,17.5C 554.833,17.5 556.167,17.5 557.5,17.5C 558.167,22.1667 560.833,24.8333 565.5,25.5C 565.5,26.8333 565.5,28.1667 565.5,29.5C 566.873,29.3433 568.207,29.51 569.5,30C 572.167,33.6667 574.833,37.3333 577.5,41C 578.793,41.49 580.127,41.6567 581.5,41.5C 582.167,46.1667 584.833,48.8333 589.5,49.5C 589.5,53.5 591.5,55.5 595.5,55.5C 595.238,56.9778 595.571,58.3112 596.5,59.5C 598.758,62.7823 601.758,64.7823 605.5,65.5C 605.962,70.4539 608.628,73.1206 613.5,73.5C 613.5,74.8333 613.5,76.1667 613.5,77.5C 614.833,77.5 616.167,77.5 617.5,77.5C 617.238,78.9778 617.571,80.3112 618.5,81.5C 621.972,85.8159 626.138,89.1493 631,91.5C 634.98,95.4673 638.48,99.8006 641.5,104.5C 646.345,105.673 649.012,108.673 649.5,113.5C 650.833,113.5 652.167,113.5 653.5,113.5C 653.5,117.5 655.5,119.5 659.5,119.5C 659.238,120.978 659.571,122.311 660.5,123.5C 662.5,124.833 664.5,126.167 666.5,127.5C 667.429,128.689 667.762,130.022 667.5,131.5C 668.833,131.5 670.167,131.5 671.5,131.5C 671.238,132.978 671.571,134.311 672.5,135.5C 677.015,139.848 681.349,144.348 685.5,149C 687.676,149.163 689.509,149.996 691,151.5C 693.028,155.871 695.861,159.704 699.5,163C 697.937,163.759 696.937,164.926 696.5,166.5C 696.167,166.5 695.833,166.5 695.5,166.5C 692.368,166.216 689.368,165.383 686.5,164C 677.567,157.725 667.234,153.059 655.5,150C 655.833,149.667 656.167,149.333 656.5,149C 651.168,148.216 646.168,146.716 641.5,144.5C 640.129,140.942 640.796,140.608 643.5,143.5C 645.965,142.078 648.631,141.078 651.5,140.5C 650.278,138.022 648.278,137.022 645.5,137.5C 645.5,133.5 643.5,131.5 639.5,131.5C 639.5,130.167 639.5,128.833 639.5,127.5C 638.022,127.762 636.689,127.429 635.5,126.5C 634.833,125.167 633.833,124.167 632.5,123.5C 631.571,122.311 631.238,120.978 631.5,119.5C 627.678,119.351 625.345,117.351 624.5,113.5C 621.744,110.073 618.41,107.407 614.5,105.5C 613.571,104.311 613.238,102.978 613.5,101.5C 609.61,101.445 607.443,99.4453 607,95.5C 604.255,92.5877 601.089,90.2544 597.5,88.5C 596.167,84.5 593.5,81.8333 589.5,80.5C 582.76,74.4301 576.76,67.7634 571.5,60.5C 570.311,59.5713 568.978,59.238 567.5,59.5C 567.5,58.1667 567.5,56.8333 567.5,55.5C 561.975,54.3963 558.641,51.063 557.5,45.5C 556.167,45.5 554.833,45.5 553.5,45.5C 553.5,41.5 551.5,39.5 547.5,39.5C 547.5,38.1667 547.5,36.8333 547.5,35.5C 542.833,34.8333 540.167,32.1667 539.5,27.5C 538.167,27.5 536.833,27.5 535.5,27.5C 535.762,26.0222 535.429,24.6888 534.5,23.5C 530.147,21.4726 526.813,18.4726 524.5,14.5C 524.389,13.8826 524.056,13.3826 523.5,13C 526.482,12.502 529.482,12.3354 532.5,12.5C 533.5,12.1667 534.167,11.5 534.5,10.5C 539.226,9.29595 544.559,8.62928 550.5,8.5 Z"/></g>
<g><path style="opacity:0.999" fill="#22b1fd" d="M 650.5,9.5 C 652.199,9.33982 653.866,9.50649 655.5,10C 657.264,11.6694 659.264,12.836 661.5,13.5C 662.696,13.1543 662.696,12.6543 661.5,12C 663.847,11.6664 666.181,11.833 668.5,12.5C 676.24,13.5174 683.907,15.0174 691.5,17C 690.944,17.3826 690.611,17.8826 690.5,18.5C 686.831,17.2494 683.164,17.2494 679.5,18.5C 679.167,17.8333 678.833,17.1667 678.5,16.5C 677.692,16.8076 677.025,17.3076 676.5,18C 678.962,19.2156 681.629,19.8823 684.5,20C 684.167,20.3333 683.833,20.6667 683.5,21C 711.07,47.7358 738.07,74.9025 764.5,102.5C 765.29,103.401 766.29,104.068 767.5,104.5C 763.548,108.452 759.548,112.452 755.5,116.5C 754.675,117.386 753.675,117.719 752.5,117.5C 718.548,83.548 684.548,49.548 650.5,15.5C 648.78,14.066 646.78,13.2326 644.5,13C 645.678,12.0331 647.011,11.5331 648.5,11.5C 647.975,10.8076 647.308,10.3076 646.5,10C 647,9.83333 647.5,9.66667 648,9.5C 649.301,10.8932 650.801,11.3932 652.5,11C 651.584,10.7216 650.918,10.2216 650.5,9.5 Z"/></g>
<g><path style="opacity:0.796" fill="#329cfd" d="M 650.5,9.5 C 650.5,9.16667 650.5,8.83333 650.5,8.5C 656.955,8.85229 662.955,10.1856 668.5,12.5C 666.181,11.833 663.847,11.6664 661.5,12C 662.696,12.6543 662.696,13.1543 661.5,13.5C 659.264,12.836 657.264,11.6694 655.5,10C 653.866,9.50649 652.199,9.33982 650.5,9.5 Z"/></g>
<g><path style="opacity:0.999" fill="#338cfd" d="M 524.5,14.5 C 526.813,18.4726 530.147,21.4726 534.5,23.5C 535.429,24.6888 535.762,26.0222 535.5,27.5C 536.833,27.5 538.167,27.5 539.5,27.5C 540.167,32.1667 542.833,34.8333 547.5,35.5C 547.5,36.8333 547.5,38.1667 547.5,39.5C 551.5,39.5 553.5,41.5 553.5,45.5C 554.833,45.5 556.167,45.5 557.5,45.5C 558.641,51.063 561.975,54.3963 567.5,55.5C 567.5,56.8333 567.5,58.1667 567.5,59.5C 568.978,59.238 570.311,59.5713 571.5,60.5C 576.76,67.7634 582.76,74.4301 589.5,80.5C 593.5,81.8333 596.167,84.5 597.5,88.5C 601.089,90.2544 604.255,92.5877 607,95.5C 607.443,99.4453 609.61,101.445 613.5,101.5C 613.238,102.978 613.571,104.311 614.5,105.5C 618.41,107.407 621.744,110.073 624.5,113.5C 625.345,117.351 627.678,119.351 631.5,119.5C 631.238,120.978 631.571,122.311 632.5,123.5C 633.833,124.167 634.833,125.167 635.5,126.5C 636.689,127.429 638.022,127.762 639.5,127.5C 639.5,128.833 639.5,130.167 639.5,131.5C 643.5,131.5 645.5,133.5 645.5,137.5C 648.278,137.022 650.278,138.022 651.5,140.5C 648.631,141.078 645.965,142.078 643.5,143.5C 640.796,140.608 640.129,140.942 641.5,144.5C 636.103,143.303 630.103,142.636 623.5,142.5C 624.635,140.912 625.969,140.579 627.5,141.5C 592.231,105.224 555.898,68.5575 518.5,31.5C 517.571,30.3112 517.238,28.9778 517.5,27.5C 513.757,25.4771 509.757,23.8104 505.5,22.5C 504.754,21.2638 504.421,19.9305 504.5,18.5C 511.052,16.6286 517.719,15.2953 524.5,14.5 Z"/></g>
<g><path style="opacity:0.997" fill="#3686fd" d="M 504.5,18.5 C 504.421,19.9305 504.754,21.2638 505.5,22.5C 509.757,23.8104 513.757,25.4771 517.5,27.5C 517.238,28.9778 517.571,30.3112 518.5,31.5C 555.898,68.5575 592.231,105.224 627.5,141.5C 625.969,140.579 624.635,140.912 623.5,142.5C 622.127,142.657 620.793,142.49 619.5,142C 619.833,141.667 620.167,141.333 620.5,141C 608.838,140.5 597.171,140.333 585.5,140.5C 584.402,139.603 584.402,138.77 585.5,138C 584.263,137.768 583.263,137.268 582.5,136.5C 587.215,136.494 591.882,135.994 596.5,135C 590.461,131.471 585.127,126.971 580.5,121.5C 579.571,120.311 579.238,118.978 579.5,117.5C 578.022,117.762 576.689,117.429 575.5,116.5C 565.725,106.725 556.058,97.0585 546.5,87.5C 545.571,86.3112 545.238,84.9778 545.5,83.5C 544.022,83.762 542.689,83.4287 541.5,82.5C 535.833,76.8333 530.167,71.1667 524.5,65.5C 523.571,64.3112 523.238,62.9778 523.5,61.5C 522.022,61.762 520.689,61.4287 519.5,60.5C 517.167,58.1667 514.833,55.8333 512.5,53.5C 511.571,52.3112 511.238,50.9778 511.5,49.5C 506.833,48.8333 504.167,46.1667 503.5,41.5C 502.022,41.762 500.689,41.4287 499.5,40.5C 496.151,36.9842 492.651,33.6508 489,30.5C 488.667,28.9532 489.167,27.6199 490.5,26.5C 489.738,26.0894 488.738,25.9227 487.5,26C 488.056,25.6174 488.389,25.1174 488.5,24.5C 494.067,22.9383 499.4,20.9383 504.5,18.5 Z"/></g>
<g><path style="opacity:1" fill="#1fb9fc" d="M 690.5,18.5 C 691.167,18.5 691.833,18.5 692.5,18.5C 692.5,18.8333 692.5,19.1667 692.5,19.5C 687.578,19.1104 687.244,20.2771 691.5,23C 693.112,23.7203 694.612,23.5536 696,22.5C 704.534,26.8227 713.701,30.656 723.5,34C 723.167,34.3333 722.833,34.6667 722.5,35C 724.468,36.5442 726.635,37.7109 729,38.5C 729.483,39.448 729.649,40.448 729.5,41.5C 730.978,41.238 732.311,41.5713 733.5,42.5C 735.833,44.8333 738.167,47.1667 740.5,49.5C 741.429,50.6888 741.762,52.0222 741.5,53.5C 742.833,53.5 744.167,53.5 745.5,53.5C 745.5,54.8333 745.5,56.1667 745.5,57.5C 746.833,57.5 748.167,57.5 749.5,57.5C 749.5,58.8333 749.5,60.1667 749.5,61.5C 754.682,63.0086 758.349,66.3419 760.5,71.5C 762.5,72.8333 764.5,74.1667 766.5,75.5C 767.429,76.6888 767.762,78.0222 767.5,79.5C 768.833,79.5 770.167,79.5 771.5,79.5C 771.238,80.9778 771.571,82.3112 772.5,83.5C 774.717,84.7684 776.717,86.2684 778.5,88C 774.645,93.6875 769.978,98.5208 764.5,102.5C 738.07,74.9025 711.07,47.7358 683.5,21C 683.833,20.6667 684.167,20.3333 684.5,20C 681.629,19.8823 678.962,19.2156 676.5,18C 677.025,17.3076 677.692,16.8076 678.5,16.5C 678.833,17.1667 679.167,17.8333 679.5,18.5C 683.164,17.2494 686.831,17.2494 690.5,18.5 Z"/></g>
<g><path style="opacity:0.973" fill="#1fbbfc" d="M 692.5,19.5 C 692.88,20.1331 693.213,20.7997 693.5,21.5C 694.167,21.1667 694.833,20.8333 695.5,20.5C 703.451,22.7934 711.284,26.1267 719,30.5C 719.333,30.1667 719.667,29.8333 720,29.5C 720.667,30.8333 721.667,31.8333 723,32.5C 724.776,31.4639 726.609,31.4639 728.5,32.5C 742.515,37.6459 754.848,44.3125 765.5,52.5C 766.398,54.6269 768.064,55.7935 770.5,56C 770.167,56.3333 769.833,56.6667 769.5,57C 772.481,58.8431 776.147,60.6764 780.5,62.5C 781.778,62.7822 782.778,63.4489 783.5,64.5C 784.494,66.6583 785.828,68.6583 787.5,70.5C 787.903,76.4548 787.236,82.4548 785.5,88.5C 784.833,88.5 784.5,88.8333 784.5,89.5C 783.325,89.281 782.325,89.6143 781.5,90.5C 776.785,95.2147 772.119,99.8814 767.5,104.5C 766.29,104.068 765.29,103.401 764.5,102.5C 769.978,98.5208 774.645,93.6875 778.5,88C 776.717,86.2684 774.717,84.7684 772.5,83.5C 771.571,82.3112 771.238,80.9778 771.5,79.5C 770.167,79.5 768.833,79.5 767.5,79.5C 767.762,78.0222 767.429,76.6888 766.5,75.5C 764.5,74.1667 762.5,72.8333 760.5,71.5C 758.349,66.3419 754.682,63.0086 749.5,61.5C 749.5,60.1667 749.5,58.8333 749.5,57.5C 748.167,57.5 746.833,57.5 745.5,57.5C 745.5,56.1667 745.5,54.8333 745.5,53.5C 744.167,53.5 742.833,53.5 741.5,53.5C 741.762,52.0222 741.429,50.6888 740.5,49.5C 738.167,47.1667 735.833,44.8333 733.5,42.5C 732.311,41.5713 730.978,41.238 729.5,41.5C 729.649,40.448 729.483,39.448 729,38.5C 726.635,37.7109 724.468,36.5442 722.5,35C 722.833,34.6667 723.167,34.3333 723.5,34C 713.701,30.656 704.534,26.8227 696,22.5C 694.612,23.5536 693.112,23.7203 691.5,23C 687.244,20.2771 687.578,19.1104 692.5,19.5 Z"/></g>
<g><path style="opacity:0.461" fill="#2fa3fb" d="M 692.5,19.5 C 692.5,19.1667 692.5,18.8333 692.5,18.5C 699.9,20.3577 707.234,22.5244 714.5,25C 714.167,25.3333 713.833,25.6667 713.5,26C 719.042,27.3776 724.042,29.5443 728.5,32.5C 726.609,31.4639 724.776,31.4639 723,32.5C 721.667,31.8333 720.667,30.8333 720,29.5C 719.667,29.8333 719.333,30.1667 719,30.5C 711.284,26.1267 703.451,22.7934 695.5,20.5C 694.833,20.8333 694.167,21.1667 693.5,21.5C 693.213,20.7997 692.88,20.1331 692.5,19.5 Z"/></g>
<g><path style="opacity:1" fill="#3882fd" d="M 488.5,24.5 C 488.389,25.1174 488.056,25.6174 487.5,26C 488.738,25.9227 489.738,26.0894 490.5,26.5C 489.167,27.6199 488.667,28.9532 489,30.5C 492.651,33.6508 496.151,36.9842 499.5,40.5C 500.689,41.4287 502.022,41.762 503.5,41.5C 504.167,46.1667 506.833,48.8333 511.5,49.5C 511.238,50.9778 511.571,52.3112 512.5,53.5C 514.833,55.8333 517.167,58.1667 519.5,60.5C 520.689,61.4287 522.022,61.762 523.5,61.5C 523.238,62.9778 523.571,64.3112 524.5,65.5C 530.167,71.1667 535.833,76.8333 541.5,82.5C 542.689,83.4287 544.022,83.762 545.5,83.5C 545.238,84.9778 545.571,86.3112 546.5,87.5C 556.058,97.0585 565.725,106.725 575.5,116.5C 576.689,117.429 578.022,117.762 579.5,117.5C 579.238,118.978 579.571,120.311 580.5,121.5C 585.127,126.971 590.461,131.471 596.5,135C 591.882,135.994 587.215,136.494 582.5,136.5C 582.602,135.663 583.602,134.996 585.5,134.5C 583.558,131.537 580.892,129.871 577.5,129.5C 577.762,128.022 577.429,126.689 576.5,125.5C 546.167,95.1667 515.833,64.8333 485.5,34.5C 482.833,33.8333 480.167,33.1667 477.5,32.5C 478.758,33.0164 479.758,32.3497 480.5,30.5C 479.575,29.4376 478.575,29.4376 477.5,30.5C 478.589,28.8829 480.256,28.0496 482.5,28C 482.167,27.6667 481.833,27.3333 481.5,27C 484.031,26.5522 486.364,25.7189 488.5,24.5 Z"/></g>
<g><path style="opacity:1" fill="#397efd" d="M 582.5,136.5 C 583.263,137.268 584.263,137.768 585.5,138C 584.402,138.77 584.402,139.603 585.5,140.5C 579.762,141.73 573.429,143.064 566.5,144.5C 566.67,143.178 566.337,142.011 565.5,141C 567.392,140.027 569.392,139.36 571.5,139C 570.833,138.667 570.167,138.333 569.5,138C 571.044,137.71 572.377,137.044 573.5,136C 564.455,127.457 555.455,118.624 546.5,109.5C 545.571,108.311 545.238,106.978 545.5,105.5C 544.022,105.762 542.689,105.429 541.5,104.5C 516.852,80.0273 493.519,56.5273 471.5,34C 472.973,33.2904 473.64,32.1238 473.5,30.5C 474.833,30.5 476.167,30.5 477.5,30.5C 478.575,29.4376 479.575,29.4376 480.5,30.5C 479.758,32.3497 478.758,33.0164 477.5,32.5C 480.167,33.1667 482.833,33.8333 485.5,34.5C 515.833,64.8333 546.167,95.1667 576.5,125.5C 577.429,126.689 577.762,128.022 577.5,129.5C 580.892,129.871 583.558,131.537 585.5,134.5C 583.602,134.996 582.602,135.663 582.5,136.5 Z"/></g>
<g><path style="opacity:0.999" fill="#3b7afe" d="M 473.5,30.5 C 473.64,32.1238 472.973,33.2904 471.5,34C 493.519,56.5273 516.852,80.0273 541.5,104.5C 542.689,105.429 544.022,105.762 545.5,105.5C 545.238,106.978 545.571,108.311 546.5,109.5C 555.455,118.624 564.455,127.457 573.5,136C 572.377,137.044 571.044,137.71 569.5,138C 570.167,138.333 570.833,138.667 571.5,139C 569.392,139.36 567.392,140.027 565.5,141C 566.337,142.011 566.67,143.178 566.5,144.5C 563.145,144.091 560.145,144.758 557.5,146.5C 546.253,134.745 534.253,122.578 521.5,110C 520.207,109.51 518.873,109.343 517.5,109.5C 517.657,108.127 517.49,106.793 517,105.5C 509.806,98.3063 502.64,91.1396 495.5,84C 494.207,83.51 492.873,83.3433 491.5,83.5C 491.657,82.1266 491.49,80.7932 491,79.5C 483.14,71.6396 475.306,63.8063 467.5,56C 466.207,55.51 464.873,55.3433 463.5,55.5C 463.833,51.1667 461.833,49.1667 457.5,49.5C 457.631,46.6711 456.631,45.3378 454.5,45.5C 457.093,43.9292 458.093,41.5959 457.5,38.5C 463.131,36.3511 468.464,33.6844 473.5,30.5 Z"/></g>
<g><path style="opacity:0.999" fill="#3d74fe" d="M 457.5,38.5 C 458.093,41.5959 457.093,43.9292 454.5,45.5C 456.631,45.3378 457.631,46.6711 457.5,49.5C 461.833,49.1667 463.833,51.1667 463.5,55.5C 464.873,55.3433 466.207,55.51 467.5,56C 475.306,63.8063 483.14,71.6396 491,79.5C 491.49,80.7932 491.657,82.1266 491.5,83.5C 492.873,83.3433 494.207,83.51 495.5,84C 502.64,91.1396 509.806,98.3063 517,105.5C 517.49,106.793 517.657,108.127 517.5,109.5C 518.873,109.343 520.207,109.51 521.5,110C 534.253,122.578 546.253,134.745 557.5,146.5C 555.143,146.337 552.81,146.503 550.5,147C 550.833,147.333 551.167,147.667 551.5,148C 547.75,148.621 544.084,149.454 540.5,150.5C 540.063,148.926 539.063,147.759 537.5,147C 538.357,146.311 539.023,145.478 539.5,144.5C 535.318,140.485 531.318,136.318 527.5,132C 526.207,131.51 524.873,131.343 523.5,131.5C 523.5,130.167 523.5,128.833 523.5,127.5C 522.167,127.5 520.833,127.5 519.5,127.5C 519.657,126.127 519.49,124.793 519,123.5C 512.348,117.348 505.848,111.015 499.5,104.5C 498.311,103.571 496.978,103.238 495.5,103.5C 495.502,101.169 494.669,99.1691 493,97.5C 477.347,82.3474 461.847,67.014 446.5,51.5C 445.914,51.7093 445.414,52.0426 445,52.5C 442.269,51.3626 439.769,50.696 437.5,50.5C 443.978,46.1809 450.645,42.1809 457.5,38.5 Z"/></g>
<g><path style="opacity:1" fill="#3f70fe" d="M 437.5,50.5 C 439.769,50.696 442.269,51.3626 445,52.5C 445.414,52.0426 445.914,51.7093 446.5,51.5C 461.847,67.014 477.347,82.3474 493,97.5C 494.669,99.1691 495.502,101.169 495.5,103.5C 496.978,103.238 498.311,103.571 499.5,104.5C 505.848,111.015 512.348,117.348 519,123.5C 519.49,124.793 519.657,126.127 519.5,127.5C 520.833,127.5 522.167,127.5 523.5,127.5C 523.5,128.833 523.5,130.167 523.5,131.5C 524.873,131.343 526.207,131.51 527.5,132C 531.318,136.318 535.318,140.485 539.5,144.5C 539.023,145.478 538.357,146.311 537.5,147C 539.063,147.759 540.063,148.926 540.5,150.5C 538.621,150.393 538.288,150.893 539.5,152C 535.575,152.234 532.575,153.068 530.5,154.5C 527.951,151.423 528.951,149.59 533.5,149C 532.359,148.259 532.359,147.425 533.5,146.5C 530.833,143.833 528.167,141.167 525.5,138.5C 524.311,137.571 522.978,137.238 521.5,137.5C 521.5,133.5 519.5,131.5 515.5,131.5C 515.762,130.022 515.429,128.689 514.5,127.5C 503.473,116.473 492.473,105.473 481.5,94.5C 476.167,91.8333 472.167,87.8333 469.5,82.5C 468.311,81.5713 466.978,81.238 465.5,81.5C 465.762,80.0222 465.429,78.6888 464.5,77.5C 456.459,69.2915 448.292,61.2915 440,53.5C 437.878,56.1835 436.378,55.8501 435.5,52.5C 435.5,51.1667 436.167,50.5 437.5,50.5 Z"/></g>
<g><path style="opacity:1" fill="#416dfe" d="M 435.5,52.5 C 436.378,55.8501 437.878,56.1835 440,53.5C 448.292,61.2915 456.459,69.2915 464.5,77.5C 465.429,78.6888 465.762,80.0222 465.5,81.5C 466.978,81.238 468.311,81.5713 469.5,82.5C 472.167,87.8333 476.167,91.8333 481.5,94.5C 492.473,105.473 503.473,116.473 514.5,127.5C 515.429,128.689 515.762,130.022 515.5,131.5C 519.5,131.5 521.5,133.5 521.5,137.5C 522.978,137.238 524.311,137.571 525.5,138.5C 528.167,141.167 530.833,143.833 533.5,146.5C 532.359,147.425 532.359,148.259 533.5,149C 528.951,149.59 527.951,151.423 530.5,154.5C 527.21,156.282 523.877,157.948 520.5,159.5C 517.427,158.267 517.094,156.767 519.5,155C 489.294,123.794 458.461,93.2935 427,63.5C 423.892,64.4242 420.726,65.4242 417.5,66.5C 416.287,66.2528 415.62,65.5862 415.5,64.5C 421.984,60.1766 428.651,56.1766 435.5,52.5 Z"/></g>
<g><path style="opacity:0.384" fill="#2fa0fd" d="M 765.5,52.5 C 771.169,54.9463 776.169,58.2796 780.5,62.5C 776.147,60.6764 772.481,58.8431 769.5,57C 769.833,56.6667 770.167,56.3333 770.5,56C 768.064,55.7935 766.398,54.6269 765.5,52.5 Z"/></g>
<g><path style="opacity:0.999" fill="#4367fe" d="M 520.5,159.5 C 516.945,161.687 512.279,164.354 506.5,167.5C 505.636,166.312 504.636,165.145 503.5,164C 504.167,163.667 504.833,163.333 505.5,163C 504.437,161.812 503.103,161.312 501.5,161.5C 501.5,160.167 501.5,158.833 501.5,157.5C 500.022,157.762 498.689,157.429 497.5,156.5C 494.5,153.5 491.5,150.5 488.5,147.5C 487.571,146.311 487.238,144.978 487.5,143.5C 481.833,142.5 478.5,139.167 477.5,133.5C 472.833,132.833 470.167,130.167 469.5,125.5C 468.167,125.5 466.833,125.5 465.5,125.5C 465.5,121.5 463.5,119.5 459.5,119.5C 459.5,118.167 459.5,116.833 459.5,115.5C 458.022,115.762 456.689,115.429 455.5,114.5C 445.167,104.167 434.833,93.8333 424.5,83.5C 423.571,82.3112 423.238,80.9778 423.5,79.5C 422.167,79.5 420.833,79.5 419.5,79.5C 419.5,78.1667 419.5,76.8333 419.5,75.5C 415.465,74.6492 411.798,72.9826 408.5,70.5C 411.072,68.7847 413.405,66.7847 415.5,64.5C 415.62,65.5862 416.287,66.2528 417.5,66.5C 420.726,65.4242 423.892,64.4242 427,63.5C 458.461,93.2935 489.294,123.794 519.5,155C 517.094,156.767 517.427,158.267 520.5,159.5 Z"/></g>
<g><path style="opacity:0.993" fill="#4661fe" d="M 408.5,70.5 C 411.798,72.9826 415.465,74.6492 419.5,75.5C 419.5,76.8333 419.5,78.1667 419.5,79.5C 420.833,79.5 422.167,79.5 423.5,79.5C 423.238,80.9778 423.571,82.3112 424.5,83.5C 434.833,93.8333 445.167,104.167 455.5,114.5C 456.689,115.429 458.022,115.762 459.5,115.5C 459.5,116.833 459.5,118.167 459.5,119.5C 463.5,119.5 465.5,121.5 465.5,125.5C 466.833,125.5 468.167,125.5 469.5,125.5C 470.167,130.167 472.833,132.833 477.5,133.5C 478.5,139.167 481.833,142.5 487.5,143.5C 487.238,144.978 487.571,146.311 488.5,147.5C 491.5,150.5 494.5,153.5 497.5,156.5C 498.689,157.429 500.022,157.762 501.5,157.5C 501.5,158.833 501.5,160.167 501.5,161.5C 503.103,161.312 504.437,161.812 505.5,163C 504.833,163.333 504.167,163.667 503.5,164C 504.636,165.145 505.636,166.312 506.5,167.5C 500.132,172.325 493.132,177.325 485.5,182.5C 485.196,181.85 484.863,181.183 484.5,180.5C 485.877,178.711 486.877,176.711 487.5,174.5C 457.779,144.278 427.612,114.611 397,85.5C 395.105,87.5296 392.938,89.1963 390.5,90.5C 390.5,89.8333 390.167,89.5 389.5,89.5C 389.953,88.5416 390.619,87.7083 391.5,87C 391.272,86.6012 390.938,86.4346 390.5,86.5C 391.406,84.5833 392.739,82.9166 394.5,81.5C 399.51,78.1432 404.177,74.4765 408.5,70.5 Z"/></g>
<g><path style="opacity:0.012" fill="#545ef6" d="M 788.5,72.5 C 790.176,73.1834 790.843,74.5168 790.5,76.5C 789.326,75.4863 788.66,74.153 788.5,72.5 Z"/></g>
<g><path style="opacity:0.337" fill="#309ffa" d="M 783.5,64.5 C 784.496,64.4142 785.329,64.7476 786,65.5C 787.413,67.6524 788.246,69.9857 788.5,72.5C 788.66,74.153 789.326,75.4863 790.5,76.5C 790.5,76.8333 790.5,77.1667 790.5,77.5C 789.599,78.2905 788.932,79.2905 788.5,80.5C 788.856,83.776 787.856,86.4427 785.5,88.5C 787.236,82.4548 787.903,76.4548 787.5,70.5C 785.828,68.6583 784.494,66.6583 783.5,64.5 Z"/></g>
<g><path style="opacity:0.012" fill="#5668ff" d="M 790.5,77.5 C 790.715,79.1788 790.048,80.1788 788.5,80.5C 788.932,79.2905 789.599,78.2905 790.5,77.5 Z"/></g>
<g><path style="opacity:1" fill="#485bfe" d="M 485.5,182.5 C 484.667,184.829 483,186.329 480.5,187C 480.833,187.333 481.167,187.667 481.5,188C 478.33,190.014 475.33,192.181 472.5,194.5C 471.637,195.463 470.97,195.463 470.5,194.5C 471.127,193.583 471.461,192.583 471.5,191.5C 473.417,190.594 475.083,189.261 476.5,187.5C 477.833,186.167 477.833,184.833 476.5,183.5C 447.527,154.527 418.527,125.527 389.5,96.5C 388.271,95.7189 386.938,95.2189 385.5,95C 387.037,93.2927 388.704,91.7927 390.5,90.5C 392.938,89.1963 395.105,87.5296 397,85.5C 427.612,114.611 457.779,144.278 487.5,174.5C 486.877,176.711 485.877,178.711 484.5,180.5C 484.863,181.183 485.196,181.85 485.5,182.5 Z"/></g>
<g><path style="opacity:1" fill="#4b57fe" d="M 389.5,89.5 C 390.167,89.5 390.5,89.8333 390.5,90.5C 388.704,91.7927 387.037,93.2927 385.5,95C 386.938,95.2189 388.271,95.7189 389.5,96.5C 418.527,125.527 447.527,154.527 476.5,183.5C 477.833,184.833 477.833,186.167 476.5,187.5C 475.083,189.261 473.417,190.594 471.5,191.5C 471.657,190.127 471.49,188.793 471,187.5C 466.604,182.934 461.771,178.934 456.5,175.5C 455.571,174.311 455.238,172.978 455.5,171.5C 454.022,171.762 452.689,171.429 451.5,170.5C 449.167,168.167 446.833,165.833 444.5,163.5C 443.571,162.311 443.238,160.978 443.5,159.5C 442.022,159.762 440.689,159.429 439.5,158.5C 437.987,155.476 435.987,152.809 433.5,150.5C 432.311,149.571 430.978,149.238 429.5,149.5C 429.762,148.022 429.429,146.689 428.5,145.5C 425.476,143.987 422.809,141.987 420.5,139.5C 419.571,138.311 419.238,136.978 419.5,135.5C 415.758,134.782 412.758,132.782 410.5,129.5C 409.571,128.311 409.238,126.978 409.5,125.5C 408.167,125.5 406.833,125.5 405.5,125.5C 405.5,124.167 405.5,122.833 405.5,121.5C 404.167,121.5 402.833,121.5 401.5,121.5C 401.5,117.5 399.5,115.5 395.5,115.5C 395.696,111.359 393.696,109.025 389.5,108.5C 387.097,106.695 385.43,104.362 384.5,101.5C 383.252,100.96 382.085,100.293 381,99.5C 378.667,101.833 376.333,104.167 374,106.5C 378.147,100.173 383.314,94.5064 389.5,89.5 Z"/></g>
<g><path style="opacity:0.999" fill="#4d53fe" d="M 390.5,86.5 C 390.938,86.4346 391.272,86.6012 391.5,87C 390.619,87.7083 389.953,88.5416 389.5,89.5C 383.314,94.5064 378.147,100.173 374,106.5C 376.333,104.167 378.667,101.833 381,99.5C 382.085,100.293 383.252,100.96 384.5,101.5C 385.43,104.362 387.097,106.695 389.5,108.5C 393.696,109.025 395.696,111.359 395.5,115.5C 399.5,115.5 401.5,117.5 401.5,121.5C 402.833,121.5 404.167,121.5 405.5,121.5C 405.5,122.833 405.5,124.167 405.5,125.5C 406.833,125.5 408.167,125.5 409.5,125.5C 409.238,126.978 409.571,128.311 410.5,129.5C 412.758,132.782 415.758,134.782 419.5,135.5C 419.238,136.978 419.571,138.311 420.5,139.5C 422.809,141.987 425.476,143.987 428.5,145.5C 429.429,146.689 429.762,148.022 429.5,149.5C 430.978,149.238 432.311,149.571 433.5,150.5C 435.987,152.809 437.987,155.476 439.5,158.5C 440.689,159.429 442.022,159.762 443.5,159.5C 443.238,160.978 443.571,162.311 444.5,163.5C 446.833,165.833 449.167,168.167 451.5,170.5C 452.689,171.429 454.022,171.762 455.5,171.5C 455.238,172.978 455.571,174.311 456.5,175.5C 461.771,178.934 466.604,182.934 471,187.5C 471.49,188.793 471.657,190.127 471.5,191.5C 471.461,192.583 471.127,193.583 470.5,194.5C 470.97,195.463 471.637,195.463 472.5,194.5C 472.611,195.117 472.944,195.617 473.5,196C 470.965,199.37 467.965,202.203 464.5,204.5C 460.572,204.822 460.739,203.822 465,201.5C 465.667,200.833 465.667,200.167 465,199.5C 463.293,200.138 461.46,200.138 459.5,199.5C 459.5,198.167 459.5,196.833 459.5,195.5C 458.167,195.5 456.833,195.5 455.5,195.5C 455.5,194.167 455.5,192.833 455.5,191.5C 451.5,191.5 449.5,189.5 449.5,185.5C 445.5,185.5 443.5,183.5 443.5,179.5C 442.022,179.762 440.689,179.429 439.5,178.5C 435.167,174.167 430.833,169.833 426.5,165.5C 425.571,164.311 425.238,162.978 425.5,161.5C 424.022,161.762 422.689,161.429 421.5,160.5C 414.5,153.5 407.5,146.5 400.5,139.5C 399.571,138.311 399.238,136.978 399.5,135.5C 398.022,135.762 396.689,135.429 395.5,134.5C 389.221,128.221 382.887,121.887 376.5,115.5C 375.571,114.311 375.238,112.978 375.5,111.5C 373.345,111.628 371.345,111.128 369.5,110C 370.84,107.821 370.507,107.321 368.5,108.5C 375.167,100.5 382.5,93.1667 390.5,86.5 Z"/></g>
<g><path style="opacity:0.035" fill="#3695fe" d="M 784.5,89.5 C 770.167,103.833 755.833,118.167 741.5,132.5C 741.586,131.504 741.252,130.671 740.5,130C 741.381,129.292 742.047,128.458 742.5,127.5C 746.167,124.5 749.5,121.167 752.5,117.5C 753.675,117.719 754.675,117.386 755.5,116.5C 759.548,112.452 763.548,108.452 767.5,104.5C 772.119,99.8814 776.785,95.2147 781.5,90.5C 782.325,89.6143 783.325,89.281 784.5,89.5 Z"/></g>
<g><path style="opacity:0.999" fill="#4f4dfe" d="M 464.5,204.5 C 459.14,212.574 453.807,220.574 448.5,228.5C 449.391,224.056 449.391,219.723 448.5,215.5C 441.527,208.527 434.527,201.527 427.5,194.5C 426.311,193.571 424.978,193.238 423.5,193.5C 423.762,192.022 423.429,190.689 422.5,189.5C 405.5,172.5 388.5,155.5 371.5,138.5C 370.311,137.571 368.978,137.238 367.5,137.5C 367.5,136.167 367.5,134.833 367.5,133.5C 366.167,133.5 364.833,133.5 363.5,133.5C 363.63,130.763 362.464,128.763 360,127.5C 356.709,129.031 353.543,130.031 350.5,130.5C 353.852,124.012 358.519,118.512 364.5,114C 363.359,113.259 363.359,112.425 364.5,111.5C 365.588,110.066 366.922,109.066 368.5,108.5C 370.507,107.321 370.84,107.821 369.5,110C 371.345,111.128 373.345,111.628 375.5,111.5C 375.238,112.978 375.571,114.311 376.5,115.5C 382.887,121.887 389.221,128.221 395.5,134.5C 396.689,135.429 398.022,135.762 399.5,135.5C 399.238,136.978 399.571,138.311 400.5,139.5C 407.5,146.5 414.5,153.5 421.5,160.5C 422.689,161.429 424.022,161.762 425.5,161.5C 425.238,162.978 425.571,164.311 426.5,165.5C 430.833,169.833 435.167,174.167 439.5,178.5C 440.689,179.429 442.022,179.762 443.5,179.5C 443.5,183.5 445.5,185.5 449.5,185.5C 449.5,189.5 451.5,191.5 455.5,191.5C 455.5,192.833 455.5,194.167 455.5,195.5C 456.833,195.5 458.167,195.5 459.5,195.5C 459.5,196.833 459.5,198.167 459.5,199.5C 461.46,200.138 463.293,200.138 465,199.5C 465.667,200.167 465.667,200.833 465,201.5C 460.739,203.822 460.572,204.822 464.5,204.5 Z"/></g>
<g><path style="opacity:1" fill="#5246fe" d="M 448.5,228.5 C 447.73,231.496 446.396,234.163 444.5,236.5C 444.414,235.504 444.748,234.671 445.5,234C 443.833,234.333 442.167,234.667 440.5,235C 441.603,233.32 441.27,231.82 439.5,230.5C 433.473,223.806 427.14,217.473 420.5,211.5C 419.571,210.311 419.238,208.978 419.5,207.5C 418.167,207.5 416.833,207.5 415.5,207.5C 415.5,206.167 415.5,204.833 415.5,203.5C 414.022,203.762 412.689,203.429 411.5,202.5C 390.527,181.527 369.527,160.527 348.5,139.5C 345.972,140.498 345.972,141.331 348.5,142C 346.527,142.495 344.527,142.662 342.5,142.5C 344.449,137.91 347.116,133.91 350.5,130.5C 353.543,130.031 356.709,129.031 360,127.5C 362.464,128.763 363.63,130.763 363.5,133.5C 364.833,133.5 366.167,133.5 367.5,133.5C 367.5,134.833 367.5,136.167 367.5,137.5C 368.978,137.238 370.311,137.571 371.5,138.5C 388.5,155.5 405.5,172.5 422.5,189.5C 423.429,190.689 423.762,192.022 423.5,193.5C 424.978,193.238 426.311,193.571 427.5,194.5C 434.527,201.527 441.527,208.527 448.5,215.5C 449.391,219.723 449.391,224.056 448.5,228.5 Z"/></g>
<g><path style="opacity:1" fill="#5541fe" d="M 444.5,236.5 C 442.208,242.433 439.875,248.433 437.5,254.5C 436.943,256.332 435.943,257.665 434.5,258.5C 434.67,257.178 434.337,256.011 433.5,255C 434.574,254.261 435.241,253.261 435.5,252C 434.896,249.476 434.229,246.976 433.5,244.5C 420.167,231.167 406.833,217.833 393.5,204.5C 392.311,203.571 390.978,203.238 389.5,203.5C 389.762,202.022 389.429,200.689 388.5,199.5C 373.5,184.5 358.5,169.5 343.5,154.5C 341.659,153.77 339.825,153.103 338,152.5C 337.51,153.793 337.343,155.127 337.5,156.5C 336.5,156.5 335.5,156.5 334.5,156.5C 335.657,150.838 338.324,146.171 342.5,142.5C 344.527,142.662 346.527,142.495 348.5,142C 345.972,141.331 345.972,140.498 348.5,139.5C 369.527,160.527 390.527,181.527 411.5,202.5C 412.689,203.429 414.022,203.762 415.5,203.5C 415.5,204.833 415.5,206.167 415.5,207.5C 416.833,207.5 418.167,207.5 419.5,207.5C 419.238,208.978 419.571,210.311 420.5,211.5C 427.14,217.473 433.473,223.806 439.5,230.5C 441.27,231.82 441.603,233.32 440.5,235C 442.167,234.667 443.833,234.333 445.5,234C 444.748,234.671 444.414,235.504 444.5,236.5 Z"/></g>
<g><path style="opacity:0.999" fill="#583bfe" d="M 434.5,258.5 C 434.663,260.857 434.497,263.19 434,265.5C 433.115,268.335 431.948,271.001 430.5,273.5C 429.85,273.196 429.183,272.863 428.5,272.5C 427.719,273.729 427.219,275.062 427,276.5C 426.501,273.978 426.668,271.478 427.5,269C 427.507,267.188 426.84,265.688 425.5,264.5C 394.833,233.833 364.167,203.167 333.5,172.5C 332.224,171.355 330.891,171.355 329.5,172.5C 328.542,174.624 327.375,176.624 326,178.5C 325.333,177.833 324.667,177.167 324,176.5C 322.416,180.219 321.583,183.886 321.5,187.5C 318.796,191.63 317.462,196.297 317.5,201.5C 316.167,201.5 314.833,201.5 313.5,201.5C 313.371,203.216 313.038,204.883 312.5,206.5C 311.442,207.6 310.608,208.934 310,210.5C 309.768,209.263 309.268,208.263 308.5,207.5C 315.499,190.462 323.666,173.128 333,155.5C 333.383,156.056 333.883,156.389 334.5,156.5C 335.5,156.5 336.5,156.5 337.5,156.5C 337.343,155.127 337.51,153.793 338,152.5C 339.825,153.103 341.659,153.77 343.5,154.5C 358.5,169.5 373.5,184.5 388.5,199.5C 389.429,200.689 389.762,202.022 389.5,203.5C 390.978,203.238 392.311,203.571 393.5,204.5C 406.833,217.833 420.167,231.167 433.5,244.5C 434.229,246.976 434.896,249.476 435.5,252C 435.241,253.261 434.574,254.261 433.5,255C 434.337,256.011 434.67,257.178 434.5,258.5 Z"/></g>
<g><path style="opacity:0.012" fill="#5165f8" d="M 695.5,166.5 C 695.833,166.5 696.167,166.5 696.5,166.5C 698.265,167.461 700.265,167.795 702.5,167.5C 701.551,168.152 700.385,168.486 699,168.5C 697.319,168.392 696.152,167.725 695.5,166.5 Z"/></g>
<g><path style="opacity:0.999" fill="#5a34ff" d="M 430.5,273.5 C 430.5,274.5 430.5,275.5 430.5,276.5C 428.422,277.743 426.588,279.41 425,281.5C 425.384,287.14 425.384,292.806 425,298.5C 424.8,300.32 423.966,301.653 422.5,302.5C 423.005,299.159 423.172,295.826 423,292.5C 422.072,289.965 420.238,288.965 417.5,289.5C 416.833,284.833 414.167,282.167 409.5,281.5C 409.762,280.022 409.429,278.689 408.5,277.5C 404.5,273.5 400.5,269.5 396.5,265.5C 395.571,264.311 395.238,262.978 395.5,261.5C 394.022,261.762 392.689,261.429 391.5,260.5C 387.167,256.167 382.833,251.833 378.5,247.5C 377.571,246.311 377.238,244.978 377.5,243.5C 373.5,241.5 369.5,239.5 365.5,237.5C 364.438,233.412 362.104,230.079 358.5,227.5C 357.571,226.311 357.238,224.978 357.5,223.5C 356.022,223.762 354.689,223.429 353.5,222.5C 345.5,214.5 337.5,206.5 329.5,198.5C 328.311,197.571 326.978,197.238 325.5,197.5C 324.18,194.174 322.847,190.84 321.5,187.5C 321.583,183.886 322.416,180.219 324,176.5C 324.667,177.167 325.333,177.833 326,178.5C 327.375,176.624 328.542,174.624 329.5,172.5C 330.891,171.355 332.224,171.355 333.5,172.5C 364.167,203.167 394.833,233.833 425.5,264.5C 426.84,265.688 427.507,267.188 427.5,269C 426.668,271.478 426.501,273.978 427,276.5C 427.219,275.062 427.719,273.729 428.5,272.5C 429.183,272.863 429.85,273.196 430.5,273.5 Z"/></g>
<g><path style="opacity:1" fill="#5f31ff" d="M 321.5,187.5 C 322.847,190.84 324.18,194.174 325.5,197.5C 326.978,197.238 328.311,197.571 329.5,198.5C 337.5,206.5 345.5,214.5 353.5,222.5C 354.689,223.429 356.022,223.762 357.5,223.5C 357.238,224.978 357.571,226.311 358.5,227.5C 362.104,230.079 364.438,233.412 365.5,237.5C 369.5,239.5 373.5,241.5 377.5,243.5C 377.238,244.978 377.571,246.311 378.5,247.5C 382.833,251.833 387.167,256.167 391.5,260.5C 392.689,261.429 394.022,261.762 395.5,261.5C 395.238,262.978 395.571,264.311 396.5,265.5C 400.5,269.5 404.5,273.5 408.5,277.5C 409.429,278.689 409.762,280.022 409.5,281.5C 414.167,282.167 416.833,284.833 417.5,289.5C 420.238,288.965 422.072,289.965 423,292.5C 423.172,295.826 423.005,299.159 422.5,302.5C 423.241,308.471 423.575,314.471 423.5,320.5C 422.691,318.708 422.191,316.708 422,314.5C 421.86,317.043 421.194,319.377 420,321.5C 384.68,285.68 349.18,250.014 313.5,214.5C 313.607,211.808 313.274,209.141 312.5,206.5C 313.038,204.883 313.371,203.216 313.5,201.5C 314.833,201.5 316.167,201.5 317.5,201.5C 317.462,196.297 318.796,191.63 321.5,187.5 Z"/></g>
<g><path style="opacity:0.998" fill="#6633ff" d="M 312.5,206.5 C 313.274,209.141 313.607,211.808 313.5,214.5C 349.18,250.014 384.68,285.68 420,321.5C 421.194,319.377 421.86,317.043 422,314.5C 422.191,316.708 422.691,318.708 423.5,320.5C 424.213,323.237 424.213,325.904 423.5,328.5C 423.808,329.308 424.308,329.975 425,330.5C 425.303,334.529 425.803,338.529 426.5,342.5C 426.167,343.167 425.833,343.833 425.5,344.5C 424.719,343.271 424.219,341.938 424,340.5C 423.833,341.5 423.667,342.5 423.5,343.5C 424.649,346.436 425.149,349.436 425,352.5C 424.667,352.833 424.333,353.167 424,353.5C 419.682,348.681 415.182,344.015 410.5,339.5C 409.571,338.311 409.238,336.978 409.5,335.5C 408.022,335.762 406.689,335.429 405.5,334.5C 399.167,328.167 392.833,321.833 386.5,315.5C 385.571,314.311 385.238,312.978 385.5,311.5C 384.127,311.657 382.793,311.49 381.5,311C 380.359,310.259 380.359,309.425 381.5,308.5C 380.311,307.571 378.978,307.238 377.5,307.5C 377.5,306.167 377.5,304.833 377.5,303.5C 376.167,303.5 374.833,303.5 373.5,303.5C 373.5,302.167 373.5,300.833 373.5,299.5C 369.758,298.782 366.758,296.782 364.5,293.5C 363.571,292.311 363.238,290.978 363.5,289.5C 362.022,289.762 360.689,289.429 359.5,288.5C 355.167,284.167 350.833,279.833 346.5,275.5C 345.571,274.311 345.238,272.978 345.5,271.5C 344.022,271.762 342.689,271.429 341.5,270.5C 336.5,265.5 331.5,260.5 326.5,255.5C 325.571,254.311 325.238,252.978 325.5,251.5C 321.758,250.782 318.758,248.782 316.5,245.5C 315.571,244.311 315.238,242.978 315.5,241.5C 310.851,240.361 307.518,237.528 305.5,233C 307.948,230.196 307.948,227.529 305.5,225C 306.742,220.624 308.075,216.291 309.5,212C 308.944,211.617 308.611,211.117 308.5,210.5C 308.5,209.5 308.5,208.5 308.5,207.5C 309.268,208.263 309.768,209.263 310,210.5C 310.608,208.934 311.442,207.6 312.5,206.5 Z"/></g>
<g><path style="opacity:0.958" fill="#1f0156" d="M 584.5,224.5 C 629.045,219.959 662.045,237.959 683.5,278.5C 695.448,310.811 691.781,341.145 672.5,369.5C 644.734,401.147 610.734,411.147 570.5,399.5C 525.52,379.795 505.853,346.128 511.5,298.5C 517.096,271.139 531.096,250.973 553.5,238C 553.167,237.667 552.833,237.333 552.5,237C 562.997,231.766 573.664,227.599 584.5,224.5 Z"/></g>
<g><path style="opacity:0.998" fill="#6d36fe" d="M 308.5,210.5 C 308.611,211.117 308.944,211.617 309.5,212C 308.075,216.291 306.742,220.624 305.5,225C 307.948,227.529 307.948,230.196 305.5,233C 307.518,237.528 310.851,240.361 315.5,241.5C 315.238,242.978 315.571,244.311 316.5,245.5C 318.758,248.782 321.758,250.782 325.5,251.5C 325.238,252.978 325.571,254.311 326.5,255.5C 331.5,260.5 336.5,265.5 341.5,270.5C 342.689,271.429 344.022,271.762 345.5,271.5C 345.238,272.978 345.571,274.311 346.5,275.5C 350.833,279.833 355.167,284.167 359.5,288.5C 360.689,289.429 362.022,289.762 363.5,289.5C 363.238,290.978 363.571,292.311 364.5,293.5C 366.758,296.782 369.758,298.782 373.5,299.5C 373.5,300.833 373.5,302.167 373.5,303.5C 374.833,303.5 376.167,303.5 377.5,303.5C 377.5,304.833 377.5,306.167 377.5,307.5C 378.978,307.238 380.311,307.571 381.5,308.5C 380.359,309.425 380.359,310.259 381.5,311C 382.793,311.49 384.127,311.657 385.5,311.5C 385.238,312.978 385.571,314.311 386.5,315.5C 392.833,321.833 399.167,328.167 405.5,334.5C 406.689,335.429 408.022,335.762 409.5,335.5C 409.238,336.978 409.571,338.311 410.5,339.5C 415.182,344.015 419.682,348.681 424,353.5C 424.333,353.167 424.667,352.833 425,352.5C 425.149,349.436 424.649,346.436 423.5,343.5C 423.667,342.5 423.833,341.5 424,340.5C 424.219,341.938 424.719,343.271 425.5,344.5C 425.833,343.833 426.167,343.167 426.5,342.5C 425.803,338.529 425.303,334.529 425,330.5C 424.308,329.975 423.808,329.308 423.5,328.5C 424.213,325.904 424.213,323.237 423.5,320.5C 423.575,314.471 423.241,308.471 422.5,302.5C 423.966,301.653 424.8,300.32 425,298.5C 425.384,292.806 425.384,287.14 425,281.5C 426.588,279.41 428.422,277.743 430.5,276.5C 423.978,308.292 425.478,338.959 435,368.5C 438.558,377.95 442.392,387.283 446.5,396.5C 444.911,397.872 443.578,399.539 442.5,401.5C 394.32,353.153 345.986,304.986 297.5,257C 298.347,254.282 299.347,251.616 300.5,249C 299.244,248.583 298.577,247.75 298.5,246.5C 299.348,238.359 301.014,230.359 303.5,222.5C 304.632,218.055 306.299,214.055 308.5,210.5 Z"/></g>
<g><path style="opacity:0.999" fill="#7737fe" d="M 298.5,246.5 C 298.577,247.75 299.244,248.583 300.5,249C 299.347,251.616 298.347,254.282 297.5,257C 345.986,304.986 394.32,353.153 442.5,401.5C 443.578,399.539 444.911,397.872 446.5,396.5C 449.515,399.863 451.515,403.863 452.5,408.5C 452.5,411.167 452.5,413.833 452.5,416.5C 453.042,420.259 451.708,422.926 448.5,424.5C 447.732,423.737 447.232,422.737 447,421.5C 441.949,427.054 436.449,432.054 430.5,436.5C 428.545,435.547 426.878,434.213 425.5,432.5C 424.311,431.571 422.978,431.238 421.5,431.5C 420.782,427.758 418.782,424.758 415.5,422.5C 414.311,421.571 412.978,421.238 411.5,421.5C 411.762,420.022 411.429,418.689 410.5,417.5C 403.5,410.5 396.5,403.5 389.5,396.5C 388.311,395.571 386.978,395.238 385.5,395.5C 385.762,394.022 385.429,392.689 384.5,391.5C 366.833,373.833 349.167,356.167 331.5,338.5C 330.311,337.571 328.978,337.238 327.5,337.5C 327.762,336.022 327.429,334.689 326.5,333.5C 316.833,323.833 307.167,314.167 297.5,304.5C 295.855,300.675 295.188,296.675 295.5,292.5C 294.448,292.649 293.448,292.483 292.5,292C 293.248,288.943 294.248,285.943 295.5,283C 295.056,281.238 294.556,281.405 294,283.5C 293.833,283 293.667,282.5 293.5,282C 293.513,276.769 293.846,271.602 294.5,266.5C 294.29,259.287 295.123,252.287 297,245.5C 297.383,246.056 297.883,246.389 298.5,246.5 Z"/></g>
<g><path style="opacity:0.986" fill="#7f3bfe" d="M 294.5,266.5 C 293.846,271.602 293.513,276.769 293.5,282C 293.667,282.5 293.833,283 294,283.5C 294.556,281.405 295.056,281.238 295.5,283C 294.248,285.943 293.248,288.943 292.5,292C 293.448,292.483 294.448,292.649 295.5,292.5C 295.188,296.675 295.855,300.675 297.5,304.5C 307.167,314.167 316.833,323.833 326.5,333.5C 327.429,334.689 327.762,336.022 327.5,337.5C 328.978,337.238 330.311,337.571 331.5,338.5C 349.167,356.167 366.833,373.833 384.5,391.5C 385.429,392.689 385.762,394.022 385.5,395.5C 386.978,395.238 388.311,395.571 389.5,396.5C 396.5,403.5 403.5,410.5 410.5,417.5C 411.429,418.689 411.762,420.022 411.5,421.5C 412.978,421.238 414.311,421.571 415.5,422.5C 418.782,424.758 420.782,427.758 421.5,431.5C 422.978,431.238 424.311,431.571 425.5,432.5C 426.878,434.213 428.545,435.547 430.5,436.5C 436.449,432.054 441.949,427.054 447,421.5C 447.232,422.737 447.732,423.737 448.5,424.5C 424.522,449.478 400.189,474.145 375.5,498.5C 383.221,488.608 391.887,479.441 401.5,471C 400.906,470.536 400.239,470.369 399.5,470.5C 405.301,464.529 410.967,458.363 416.5,452C 414.866,451.506 413.199,451.34 411.5,451.5C 411.762,450.022 411.429,448.689 410.5,447.5C 406.833,443.833 403.167,440.167 399.5,436.5C 398.311,435.571 396.978,435.238 395.5,435.5C 395.5,434.167 395.5,432.833 395.5,431.5C 391.678,431.351 389.345,429.351 388.5,425.5C 383.5,420.5 378.5,415.5 373.5,410.5C 372.311,409.571 370.978,409.238 369.5,409.5C 369.5,405.5 367.5,403.5 363.5,403.5C 363.762,402.022 363.429,400.689 362.5,399.5C 359.5,396.5 356.5,393.5 353.5,390.5C 352.311,389.571 350.978,389.238 349.5,389.5C 349.5,385.5 347.5,383.5 343.5,383.5C 343.762,382.022 343.429,380.689 342.5,379.5C 338.527,376.194 334.86,372.527 331.5,368.5C 330.311,367.571 328.978,367.238 327.5,367.5C 327.5,363.5 325.5,361.5 321.5,361.5C 321.5,360.167 321.5,358.833 321.5,357.5C 320.167,357.5 318.833,357.5 317.5,357.5C 317.762,356.022 317.429,354.689 316.5,353.5C 313.5,350.5 310.5,347.5 307.5,344.5C 306.311,343.571 304.978,343.238 303.5,343.5C 302.942,339.275 300.609,336.609 296.5,335.5C 296.142,331.491 295.642,327.491 295,323.5C 294.667,326.5 294.333,329.5 294,332.5C 293.529,330.754 292.862,329.087 292,327.5C 291.923,330.758 291.756,333.924 291.5,337C 292.811,336.946 293.811,337.946 294.5,340C 293.726,342.154 293.059,344.321 292.5,346.5C 291.883,346.389 291.383,346.056 291,345.5C 289.986,319.449 290.652,293.449 293,267.5C 293.383,266.944 293.883,266.611 294.5,266.5 Z"/></g>
<g><path style="opacity:0.995" fill="#8a3dfe" d="M 399.5,470.5 C 397.871,471.625 396.371,472.959 395,474.5C 393.301,473.594 391.467,473.261 389.5,473.5C 389.762,472.022 389.429,470.689 388.5,469.5C 383.833,464.833 379.167,460.167 374.5,455.5C 373.571,454.311 373.238,452.978 373.5,451.5C 372.167,451.5 370.833,451.5 369.5,451.5C 369.5,450.167 369.5,448.833 369.5,447.5C 367.5,447.5 365.5,447.5 363.5,447.5C 363.5,446.167 363.5,444.833 363.5,443.5C 362.022,443.762 360.689,443.429 359.5,442.5C 358.167,440.5 356.833,438.5 355.5,436.5C 354.311,435.571 352.978,435.238 351.5,435.5C 351.5,434.167 351.5,432.833 351.5,431.5C 349.508,431.672 347.842,431.005 346.5,429.5C 346.276,423.606 343.276,420.939 337.5,421.5C 337.5,420.167 337.5,418.833 337.5,417.5C 336.022,417.762 334.689,417.429 333.5,416.5C 330.073,413.744 327.407,410.41 325.5,406.5C 324.311,405.571 322.978,405.238 321.5,405.5C 321.083,402.657 320.083,399.99 318.5,397.5C 317.833,398.167 317.167,398.833 316.5,399.5C 315.655,395.649 313.322,393.649 309.5,393.5C 307.701,389.171 305.201,385.171 302,381.5C 301.883,382.95 302.05,384.45 302.5,386C 301.495,387.109 300.828,388.609 300.5,390.5C 299.883,390.611 299.383,390.944 299,391.5C 297.871,385.188 296.871,378.854 296,372.5C 295.667,372.833 295.333,373.167 295,373.5C 293.044,364.702 292.211,355.702 292.5,346.5C 293.059,344.321 293.726,342.154 294.5,340C 293.811,337.946 292.811,336.946 291.5,337C 291.756,333.924 291.923,330.758 292,327.5C 292.862,329.087 293.529,330.754 294,332.5C 294.333,329.5 294.667,326.5 295,323.5C 295.642,327.491 296.142,331.491 296.5,335.5C 300.609,336.609 302.942,339.275 303.5,343.5C 304.978,343.238 306.311,343.571 307.5,344.5C 310.5,347.5 313.5,350.5 316.5,353.5C 317.429,354.689 317.762,356.022 317.5,357.5C 318.833,357.5 320.167,357.5 321.5,357.5C 321.5,358.833 321.5,360.167 321.5,361.5C 325.5,361.5 327.5,363.5 327.5,367.5C 328.978,367.238 330.311,367.571 331.5,368.5C 334.86,372.527 338.527,376.194 342.5,379.5C 343.429,380.689 343.762,382.022 343.5,383.5C 347.5,383.5 349.5,385.5 349.5,389.5C 350.978,389.238 352.311,389.571 353.5,390.5C 356.5,393.5 359.5,396.5 362.5,399.5C 363.429,400.689 363.762,402.022 363.5,403.5C 367.5,403.5 369.5,405.5 369.5,409.5C 370.978,409.238 372.311,409.571 373.5,410.5C 378.5,415.5 383.5,420.5 388.5,425.5C 389.345,429.351 391.678,431.351 395.5,431.5C 395.5,432.833 395.5,434.167 395.5,435.5C 396.978,435.238 398.311,435.571 399.5,436.5C 403.167,440.167 406.833,443.833 410.5,447.5C 411.429,448.689 411.762,450.022 411.5,451.5C 413.199,451.34 414.866,451.506 416.5,452C 410.967,458.363 405.301,464.529 399.5,470.5 Z"/></g>
<g><path style="opacity:0.047" fill="#5e54f6" d="M 452.5,408.5 C 454.026,409.492 454.693,410.992 454.5,413C 454.392,414.681 453.725,415.848 452.5,416.5C 452.5,413.833 452.5,411.167 452.5,408.5 Z"/></g>
<g><path style="opacity:0.96" fill="#9340fe" d="M 399.5,470.5 C 400.239,470.369 400.906,470.536 401.5,471C 391.887,479.441 383.221,488.608 375.5,498.5C 367.838,505.872 359.838,506.205 351.5,499.5C 330.242,470.647 314.075,439.314 303,405.5C 301.682,400.567 300.849,395.567 300.5,390.5C 300.828,388.609 301.495,387.109 302.5,386C 302.05,384.45 301.883,382.95 302,381.5C 305.201,385.171 307.701,389.171 309.5,393.5C 313.322,393.649 315.655,395.649 316.5,399.5C 317.167,398.833 317.833,398.167 318.5,397.5C 320.083,399.99 321.083,402.657 321.5,405.5C 322.978,405.238 324.311,405.571 325.5,406.5C 327.407,410.41 330.073,413.744 333.5,416.5C 334.689,417.429 336.022,417.762 337.5,417.5C 337.5,418.833 337.5,420.167 337.5,421.5C 343.276,420.939 346.276,423.606 346.5,429.5C 347.842,431.005 349.508,431.672 351.5,431.5C 351.5,432.833 351.5,434.167 351.5,435.5C 352.978,435.238 354.311,435.571 355.5,436.5C 356.833,438.5 358.167,440.5 359.5,442.5C 360.689,443.429 362.022,443.762 363.5,443.5C 363.5,444.833 363.5,446.167 363.5,447.5C 365.5,447.5 367.5,447.5 369.5,447.5C 369.5,448.833 369.5,450.167 369.5,451.5C 370.833,451.5 372.167,451.5 373.5,451.5C 373.238,452.978 373.571,454.311 374.5,455.5C 379.167,460.167 383.833,464.833 388.5,469.5C 389.429,470.689 389.762,472.022 389.5,473.5C 391.467,473.261 393.301,473.594 395,474.5C 396.371,472.959 397.871,471.625 399.5,470.5 Z"/></g>
<g><path style="opacity:0.962" fill="#1e0156" d="M 497.5,460.5 C 500.572,460.183 503.572,460.516 506.5,461.5C 569.814,497.43 632.481,497.43 694.5,461.5C 696,461.167 697.5,460.833 699,460.5C 703.954,461.248 707.788,462.914 710.5,465.5C 736.167,491.167 761.833,516.833 787.5,542.5C 791.734,550.004 791.067,557.171 785.5,564C 706.068,620.42 619.068,637.42 524.5,615C 483.49,604.817 446.49,587.317 413.5,562.5C 409.571,555.894 409.571,549.227 413.5,542.5C 439.833,516.167 466.167,489.833 492.5,463.5C 494.655,462.999 496.322,461.999 497.5,460.5 Z"/></g>
</svg>
