<?xml version="1.0" encoding="UTF-8"?>
<svg version="1.1" xmlns="http://www.w3.org/2000/svg" width="460" height="460">
<path d="M0 0 C151.8 0 303.6 0 460 0 C460 151.8 460 303.6 460 460 C308.2 460 156.4 460 0 460 C0 308.2 0 156.4 0 0 Z " fill="#000000" transform="translate(0,0)"/>
<path d="M0 0 C4.61039944 1.76568489 6.77713731 4.63660288 9 9 C9.68996466 12.90979973 9.46136475 16.09824162 7.625 19.6875 C7.08875 20.450625 6.5525 21.21375 6 22 C5.71640625 22.7425 5.4328125 23.485 5.140625 24.25 C3.78454572 27.51945143 2.02141478 30.32475218 0.125 33.3125 C-2.49909194 37.49554565 -4.95156931 41.68224745 -7.09375 46.1328125 C-10.13297219 52.39465822 -13.76694655 58.24054616 -17.5625 64.0625 C-20.30902318 68.27981755 -22.90340362 72.46891757 -25.0546875 77.0234375 C-35.7696477 99.42744518 -35.7696477 99.42744518 -43 104 C-47.34473191 105.44824397 -51.7826522 105.63352794 -56.1875 104.375 C-59.75059275 101.67196412 -62.33842032 99.27445041 -63.59765625 94.9453125 C-64.61352675 83.97391112 -56.37339441 72.57457919 -50.3515625 63.9765625 C-47.95776619 60.47580836 -46.02554256 56.72146927 -44 53 C-42.46682788 50.22439274 -40.92210281 47.45536118 -39.375 44.6875 C-38.99045654 43.99325928 -38.60591309 43.29901855 -38.2097168 42.58374023 C-36.31724278 39.19965298 -34.34963032 36.09020148 -32 33 C-31.23650516 31.5593419 -30.50929065 30.09907697 -29.8125 28.625 C-15.17095989 -1.18729251 -15.17095989 -1.18729251 0 0 Z " fill="#C2F44E" transform="translate(283,199)"/>
<path d="M0 0 C4.59457298 1.79787638 6.77864953 4.6395713 9 9 C9.59548827 15.48192406 8.32065168 19.47369425 5.25 25.125 C4.90195312 25.80175781 4.55390625 26.47851562 4.1953125 27.17578125 C2.04004102 31.302727 -0.39121995 35.14007033 -3 39 C-3.98251449 40.71554231 -4.94165077 42.44472079 -5.875 44.1875 C-6.38804687 45.13882813 -6.90109375 46.09015625 -7.4296875 47.0703125 C-7.94789063 48.03710938 -8.46609375 49.00390625 -9 50 C-12.34538251 56.22275815 -15.77180381 62.36381855 -19.43359375 68.40625 C-23.46499505 75.08168756 -27.38409349 81.81089671 -31.0625 88.6875 C-32.97781321 92.20230349 -34.93779907 95.66948269 -37.0625 99.0625 C-37.50722656 99.77535156 -37.95195312 100.48820312 -38.41015625 101.22265625 C-40.97731418 104.09257482 -43.75509083 104.83271533 -47.5 105.3359375 C-51.6546248 105.40085351 -54.27269776 105.41781192 -57.9375 103.3125 C-62.06494284 98.68476106 -63.4210789 95.62420608 -63.33227539 89.47192383 C-62.74209555 85.08135006 -60.5849548 81.67335122 -58.3125 77.9375 C-57.87744141 77.18662109 -57.44238281 76.43574219 -56.99414062 75.66210938 C-54.89456641 72.06328364 -52.70691781 68.52526855 -50.48046875 65.00390625 C-47.81373104 60.76186939 -45.39925216 56.39738807 -43 52 C-41.29423459 48.89441568 -39.5848437 45.79084017 -37.875 42.6875 C-37.44574219 41.90310547 -37.01648438 41.11871094 -36.57421875 40.31054688 C-33.33454357 34.44424274 -33.33454357 34.44424274 -31.3203125 31.76953125 C-29.73307073 29.6422516 -28.96942084 27.46378499 -28 25 C-27.10102942 23.5790465 -26.16189937 22.18282945 -25.1875 20.8125 C-22.95469118 17.57654519 -21.18932198 14.38935362 -19.5625 10.8125 C-15.21135398 1.98628291 -9.97807283 -1.67998165 0 0 Z " fill="#C2F44E" transform="translate(379,139)"/>
<path d="M0 0 C3.92279571 2.2882975 7.31841094 5.56575334 8.57421875 10.05078125 C9.01638122 18.87878363 4.37654062 25.70165041 0 33 C-0.53496094 33.91136719 -1.06992188 34.82273438 -1.62109375 35.76171875 C-2.57324103 37.36411296 -3.53533235 38.96064478 -4.5078125 40.55078125 C-6.79805363 44.3098943 -8.99881263 48.12034177 -11.2109375 51.92578125 C-12.39912036 53.96748411 -13.59180004 56.00657693 -14.7890625 58.04296875 C-19.18215915 65.52284477 -23.38680273 73.0880276 -27.4609375 80.74609375 C-38.53073196 101.39213898 -38.53073196 101.39213898 -45 105 C-50.12203935 105.83223682 -54.390024 105.87207033 -59 103.375 C-62.56743433 99.13867174 -64.75894335 95.10331787 -64.55078125 89.40625 C-62.94931259 82.40976281 -58.4737728 75.84711422 -54.25 70.125 C-51.89425031 67.09429098 -51.89425031 67.09429098 -50.5625 63.625 C-48.90773659 59.78594888 -46.83063689 56.67979002 -44.47265625 53.25 C-42.75333545 50.62313321 -41.41058756 47.92115614 -40.05859375 45.09375 C-38.38383337 41.7813088 -36.41993092 38.65021602 -34.4921875 35.48046875 C-33.17985844 33.29897934 -31.91828789 31.10315049 -30.6875 28.875 C-30.28789062 28.153125 -29.88828125 27.43125 -29.4765625 26.6875 C-28.6484892 25.18031896 -27.82229462 23.67208918 -27.00292969 22.16015625 C-14.16437689 -1.49638135 -14.16437689 -1.49638135 0 0 Z " fill="#C2F44E" transform="translate(232,139)"/>
<path d="M0 0 C4.01027175 1.91729183 6.28651277 4.95889958 8 9 C9.63112263 16.92035509 6.04502302 22.46192198 2 29 C1.25577848 30.23836321 0.51369359 31.47801229 -0.2265625 32.71875 C-1.78161279 35.32228116 -3.34508227 37.92046831 -4.9140625 40.515625 C-6.87941525 43.78022683 -8.73790042 47.09240078 -10.5625 50.4375 C-12.62760378 54.11877195 -14.7876583 57.74273954 -16.9375 61.375 C-19.69978466 66.04576309 -22.43339633 70.7177812 -25 75.5 C-27.61157253 80.33624542 -30.3135616 85.11582471 -33.0625 89.875 C-33.47435547 90.60138672 -33.88621094 91.32777344 -34.31054688 92.07617188 C-37.36104962 97.31603065 -40.93086341 103.09255707 -47 105 C-51.15145955 105.32948092 -53.88274677 105.43166602 -57.75 103.9375 C-61.999487 100.27821953 -63.71030987 96.70917176 -64.625 91.3125 C-64.16461616 82.82828351 -58.09684395 74.73188712 -53.296875 68.03515625 C-51.90956751 65.99751286 -51.90956751 65.99751286 -51.0078125 63.515625 C-49.6697331 60.17561284 -47.69903172 57.50046116 -45.6328125 54.57421875 C-43.89647338 51.83678458 -42.50449031 49.033229 -41.08007812 46.12573242 C-39.28322981 42.58930423 -37.22873123 39.21178454 -35.1875 35.8125 C-32.05842065 30.55989029 -29.03879423 25.28370506 -26.1875 19.875 C-23.74966948 15.2746704 -21.1201155 11.16015401 -18 7 C-17.46375 6.071875 -16.9275 5.14375 -16.375 4.1875 C-12.68945875 -1.67586108 -6.14747839 -0.80396349 0 0 Z " fill="#C2F44E" transform="translate(136,199)"/>
</svg>
