<?xml version="1.0" encoding="UTF-8"?>
<!DOCTYPE svg PUBLIC "-//W3C//DTD SVG 1.1//EN" "http://www.w3.org/Graphics/SVG/1.1/DTD/svg11.dtd">
<svg xmlns="http://www.w3.org/2000/svg" version="1.1" width="512px" height="192px" style="shape-rendering:geometricPrecision; text-rendering:geometricPrecision; image-rendering:optimizeQuality; fill-rule:evenodd; clip-rule:evenodd" xmlns:xlink="http://www.w3.org/1999/xlink">
<g><path style="opacity:0.984" fill="#00acd7" d="M 231.5,-0.5 C 241.167,-0.5 250.833,-0.5 260.5,-0.5C 290.436,5.32018 311.436,22.3202 323.5,50.5C 321.997,52.4216 319.997,53.5883 317.5,54C 303.72,57.7367 289.886,61.2367 276,64.5C 271.399,62.9258 267.566,60.0924 264.5,56C 245.536,44.0604 227.202,45.0604 209.5,59C 188.461,77.3166 183.628,99.15 195,124.5C 208.045,140.889 224.545,145.722 244.5,139C 254.9,134.148 263.233,126.982 269.5,117.5C 252.269,116.827 235.103,116.16 218,115.5C 216.195,112.878 216.195,110.211 218,107.5C 222,98.8333 226,90.1667 230,81.5C 231.167,80.3333 232.333,79.1667 233.5,78C 261.167,77.6667 288.833,77.3333 316.5,77C 338.978,22.9244 379.645,-2.07561 438.5,2C 478.728,8.73305 503.061,31.8997 511.5,71.5C 511.5,81.5 511.5,91.5 511.5,101.5C 500.642,147.194 472.309,176.027 426.5,188C 419.045,189.325 411.712,190.491 404.5,191.5C 402.167,191.5 399.833,191.5 397.5,191.5C 368.543,189.604 345.043,177.271 327,154.5C 322.531,147.229 318.865,139.562 316,131.5C 288.996,179.08 248.496,197.58 194.5,187C 149.908,170.353 130.408,138.186 136,90.5C 144.762,51.1525 167.595,23.3191 204.5,7C 213.413,3.69181 222.413,1.19181 231.5,-0.5 Z M 417.5,47.5 C 447.722,50.5531 461.888,67.2198 460,97.5C 454.478,119.357 440.978,133.857 419.5,141C 394.147,145.743 376.647,136.243 367,112.5C 363.446,84.1027 374.613,63.936 400.5,52C 406.175,49.9998 411.842,48.4998 417.5,47.5 Z"/></g>
<g><path style="opacity:0.924" fill="#00acd7" d="M 43.5,47.5 C 74.1667,47.5 104.833,47.5 135.5,47.5C 134.155,56.1813 129.155,59.848 120.5,58.5C 92.5001,57.9133 64.5001,57.2466 36.5,56.5C 38.4752,53.1951 40.8085,50.1951 43.5,47.5 Z"/></g>
<g><path style="opacity:0.904" fill="#00abd6" d="M -0.5,80.5 C -0.5,79.5 -0.5,78.5 -0.5,77.5C 1.59981,75.502 3.59981,73.3353 5.5,71C 44.5,70.3333 83.5,70.3333 122.5,71C 122.938,74.0734 122.271,77.0734 120.5,80C 80.168,80.5 39.8347,80.6667 -0.5,80.5 Z"/></g>
<g><path style="opacity:0.925" fill="#00acd7" d="M 64.5,93.5 C 82.1667,93.5 99.8333,93.5 117.5,93.5C 117.5,96.8333 117.5,100.167 117.5,103.5C 98.1667,103.5 78.8333,103.5 59.5,103.5C 60.1092,99.615 61.7758,96.2817 64.5,93.5 Z"/></g>
</svg>
