<?xml version="1.0" encoding="UTF-8"?>
<!DOCTYPE svg PUBLIC "-//W3C//DTD SVG 1.1//EN" "http://www.w3.org/Graphics/SVG/1.1/DTD/svg11.dtd">
<svg xmlns="http://www.w3.org/2000/svg" version="1.1" width="1000px" height="420px" style="shape-rendering:geometricPrecision; text-rendering:geometricPrecision; image-rendering:optimizeQuality; fill-rule:evenodd; clip-rule:evenodd" xmlns:xlink="http://www.w3.org/1999/xlink">
<g><path style="opacity:0.004" fill="#fe9679" d="M 156.5,59.5 C 155.833,58.1667 155.833,58.1667 156.5,59.5 Z"/></g>
<g><path style="opacity:1" fill="#ff7f43" d="M 217.5,116.5 C 214.862,117.322 213.362,118.655 213,120.5C 210.38,119.794 207.88,118.794 205.5,117.5C 203.941,118.074 202.441,118.74 201,119.5C 199.467,119.056 197.967,118.723 196.5,118.5C 194.663,121.977 192.496,121.977 190,118.5C 189.026,120.878 188.359,120.544 188,117.5C 186.249,119.918 184.249,121.251 182,121.5C 180.272,119.806 180.772,118.639 183.5,118C 181.862,117.758 180.362,116.925 179,115.5C 178.085,116.328 177.419,117.328 177,118.5C 175.667,118.5 174.333,118.5 173,118.5C 172,119.5 171,120.5 170,121.5C 169,119.833 167.667,118.5 166,117.5C 165,118.833 164,118.833 163,117.5C 163.15,119.506 163.65,121.506 164.5,123.5C 163.272,122.694 162.272,121.694 161.5,120.5C 161.738,116.901 160.738,116.567 158.5,119.5C 157.449,118.115 156.116,117.115 154.5,116.5C 153.614,117.325 153.281,118.325 153.5,119.5C 152.178,119.67 151.011,119.337 150,118.5C 149.323,120.689 148.156,121.022 146.5,119.5C 145.167,120.167 143.833,120.833 142.5,121.5C 141.667,120.5 140.833,119.5 140,118.5C 137.667,118.5 135.333,118.5 133,118.5C 132.692,119.308 132.192,119.975 131.5,120.5C 128.854,120.679 126.187,120.012 123.5,118.5C 121.124,121.987 118.458,122.653 115.5,120.5C 118.607,113.794 122.607,107.627 127.5,102C 127.167,101.667 126.833,101.333 126.5,101C 136.779,86.7645 146.779,72.9311 156.5,59.5C 158.962,56.5361 161.629,53.7028 164.5,51C 165.549,50.5078 166.549,50.6744 167.5,51.5C 185.056,73.1809 201.722,94.8476 217.5,116.5 Z"/></g>
<g><path style="opacity:1" fill="#ff9758" d="M 161.5,120.5 C 162.272,121.694 163.272,122.694 164.5,123.5C 172.531,133.857 180.531,144.191 188.5,154.5C 193.531,161.19 198.531,167.857 203.5,174.5C 207.267,180.38 211.267,186.046 215.5,191.5C 224.053,205.945 232.053,220.612 239.5,235.5C 242.276,242.935 244.276,250.602 245.5,258.5C 245.801,266.947 244.968,275.28 243,283.5C 240.163,291.194 236.663,298.527 232.5,305.5C 215.696,326.073 194.029,338.073 167.5,341.5C 157.817,341.532 148.151,341.199 138.5,340.5C 117.874,335.863 101.207,325.196 88.5,308.5C 86.267,303.701 83.767,299.035 81,294.5C 78.705,287.486 76.8716,280.486 75.5,273.5C 74.945,258.821 77.6116,244.821 83.5,231.5C 89.9919,219.18 96.9919,207.18 104.5,195.5C 110.188,188.47 115.522,181.137 120.5,173.5C 125.155,167.539 129.822,161.539 134.5,155.5C 143.852,144.143 152.852,132.476 161.5,120.5 Z"/></g>
<g><path style="opacity:0.999" fill="#ff753a" d="M 161.5,120.5 C 152.852,132.476 143.852,144.143 134.5,155.5C 134.53,154.503 134.03,153.836 133,153.5C 131.989,153.892 131.489,154.559 131.5,155.5C 130.184,152.972 129.017,152.972 128,155.5C 126.887,154.289 125.72,154.289 124.5,155.5C 122.851,154.352 121.351,153.019 120,151.5C 119.225,153.223 117.892,154.223 116,154.5C 114.37,153.453 112.704,152.453 111,151.5C 111.077,152.738 110.911,153.738 110.5,154.5C 108.509,154.098 106.676,153.431 105,152.5C 104.667,153.833 104.333,155.167 104,156.5C 102.671,155.506 101.338,154.506 100,153.5C 98.6998,154.707 97.1998,155.374 95.5,155.5C 101.227,143.248 107.894,131.581 115.5,120.5C 118.458,122.653 121.124,121.987 123.5,118.5C 126.187,120.012 128.854,120.679 131.5,120.5C 132.192,119.975 132.692,119.308 133,118.5C 135.333,118.5 137.667,118.5 140,118.5C 140.833,119.5 141.667,120.5 142.5,121.5C 143.833,120.833 145.167,120.167 146.5,119.5C 148.156,121.022 149.323,120.689 150,118.5C 151.011,119.337 152.178,119.67 153.5,119.5C 153.281,118.325 153.614,117.325 154.5,116.5C 156.116,117.115 157.449,118.115 158.5,119.5C 160.738,116.567 161.738,116.901 161.5,120.5 Z"/></g>
<g><path style="opacity:0.998" fill="#ff743a" d="M 217.5,116.5 C 223.325,125.477 229.158,134.477 235,143.5C 238.309,145.633 240.142,148.633 240.5,152.5C 238.354,153.431 236.188,153.097 234,151.5C 234.077,152.738 233.911,153.738 233.5,154.5C 231.566,154.099 230.066,153.099 229,151.5C 227.623,155.265 226.623,154.932 226,150.5C 225.761,152.761 225.594,154.761 225.5,156.5C 223.611,153.34 221.111,151.674 218,151.5C 217.717,154.742 216.883,155.076 215.5,152.5C 212.526,152.041 209.693,152.707 207,154.5C 205.11,154.215 203.777,153.215 203,151.5C 201.216,154.003 199.549,154.003 198,151.5C 195.286,154.378 192.453,154.711 189.5,152.5C 188.702,152.957 188.369,153.624 188.5,154.5C 180.531,144.191 172.531,133.857 164.5,123.5C 163.65,121.506 163.15,119.506 163,117.5C 164,118.833 165,118.833 166,117.5C 167.667,118.5 169,119.833 170,121.5C 171,120.5 172,119.5 173,118.5C 174.333,118.5 175.667,118.5 177,118.5C 177.419,117.328 178.085,116.328 179,115.5C 180.362,116.925 181.862,117.758 183.5,118C 180.772,118.639 180.272,119.806 182,121.5C 184.249,121.251 186.249,119.918 188,117.5C 188.359,120.544 189.026,120.878 190,118.5C 192.496,121.977 194.663,121.977 196.5,118.5C 197.967,118.723 199.467,119.056 201,119.5C 202.441,118.74 203.941,118.074 205.5,117.5C 207.88,118.794 210.38,119.794 213,120.5C 213.362,118.655 214.862,117.322 217.5,116.5 Z"/></g>
<g><path style="opacity:0.993" fill="#ff6e35" d="M 95.5,155.5 C 97.1998,155.374 98.6998,154.707 100,153.5C 101.338,154.506 102.671,155.506 104,156.5C 104.333,155.167 104.667,153.833 105,152.5C 106.676,153.431 108.509,154.098 110.5,154.5C 110.911,153.738 111.077,152.738 111,151.5C 112.704,152.453 114.37,153.453 116,154.5C 117.892,154.223 119.225,153.223 120,151.5C 121.351,153.019 122.851,154.352 124.5,155.5C 125.72,154.289 126.887,154.289 128,155.5C 129.017,152.972 130.184,152.972 131.5,155.5C 131.489,154.559 131.989,153.892 133,153.5C 134.03,153.836 134.53,154.503 134.5,155.5C 129.822,161.539 125.155,167.539 120.5,173.5C 118.409,170.039 116.409,170.039 114.5,173.5C 113.575,172.359 112.741,172.359 112,173.5C 111.333,172.833 110.667,172.167 110,171.5C 108.333,172.5 107,173.833 106,175.5C 104.316,173.541 102.316,173.541 100,175.5C 97.3813,173.231 94.8813,173.231 92.5,175.5C 90.9579,174.253 89.4579,174.253 88,175.5C 84.5782,171.896 81.2449,171.896 78,175.5C 76.4878,174.743 75.1545,173.743 74,172.5C 73.3086,174.891 72.3086,174.891 71,172.5C 69.6914,174.891 68.6914,174.891 68,172.5C 67.2588,173.641 66.4255,173.641 65.5,172.5C 65.5,173.5 65.5,174.5 65.5,175.5C 63.4177,173.893 61.9177,172.226 61,170.5C 60.7837,172.384 60.117,174.051 59,175.5C 58.7167,172.258 57.8834,171.924 56.5,174.5C 55.5745,173.359 54.7412,173.359 54,174.5C 53.6667,173.5 53.3333,172.5 53,171.5C 52.6667,171.833 52.3333,172.167 52,172.5C 51.34,170.676 50.1733,169.343 48.5,168.5C 51.331,162.537 54.1643,156.537 57,150.5C 59.6706,147.163 61.8373,143.496 63.5,139.5C 64.956,137.554 66.6227,135.887 68.5,134.5C 69.4419,134.608 70.2753,134.941 71,135.5C 77.0514,144.938 84.0514,153.605 92,161.5C 93.8195,159.868 94.9862,157.868 95.5,155.5 Z"/></g>
<g><path style="opacity:0.994" fill="#ff6d34" d="M 240.5,152.5 C 245.317,157.156 248.983,163.156 251.5,170.5C 250.21,169.942 249.377,168.942 249,167.5C 248.349,169.235 248.515,170.902 249.5,172.5C 247.534,173.372 245.534,173.205 243.5,172C 244.624,171.751 245.624,171.251 246.5,170.5C 246.333,170.167 246.167,169.833 246,169.5C 243.895,170.311 241.895,171.311 240,172.5C 238.531,170.586 236.865,169.919 235,170.5C 234.333,171.167 233.667,171.833 233,172.5C 231.318,172.193 229.652,171.86 228,171.5C 227.055,171.905 226.388,172.572 226,173.5C 225,172.167 224,172.167 223,173.5C 222.544,172.256 223.044,171.423 224.5,171C 222.343,170.922 220.343,170.755 218.5,170.5C 217.497,172.542 216.163,172.875 214.5,171.5C 212.386,172.034 210.552,173.034 209,174.5C 208.517,173.552 208.351,172.552 208.5,171.5C 206.876,171.36 205.71,172.027 205,173.5C 203.893,172.288 203.393,172.621 203.5,174.5C 198.531,167.857 193.531,161.19 188.5,154.5C 188.369,153.624 188.702,152.957 189.5,152.5C 192.453,154.711 195.286,154.378 198,151.5C 199.549,154.003 201.216,154.003 203,151.5C 203.777,153.215 205.11,154.215 207,154.5C 209.693,152.707 212.526,152.041 215.5,152.5C 216.883,155.076 217.717,154.742 218,151.5C 221.111,151.674 223.611,153.34 225.5,156.5C 225.594,154.761 225.761,152.761 226,150.5C 226.623,154.932 227.623,155.265 229,151.5C 230.066,153.099 231.566,154.099 233.5,154.5C 233.911,153.738 234.077,152.738 234,151.5C 236.188,153.097 238.354,153.431 240.5,152.5 Z"/></g>
<g><path style="opacity:0.004" fill="#fe9679" d="M 333.5,153.5 C 332.833,152.167 332.833,152.167 333.5,153.5 Z"/></g>
<g><path style="opacity:0.004" fill="#fe9679" d="M 491.5,152.5 C 492.833,153.167 492.833,153.167 491.5,152.5 Z"/></g>
<g><path style="opacity:0.54" fill="#f3f3f3" d="M 333.5,153.5 C 348.079,153.176 362.579,153.51 377,154.5C 377.5,178.498 377.667,202.498 377.5,226.5C 400.833,226.5 424.167,226.5 447.5,226.5C 447.5,202.167 447.5,177.833 447.5,153.5C 462.167,153.5 476.833,153.5 491.5,153.5C 491.5,218.833 491.5,284.167 491.5,349.5C 476.833,349.5 462.167,349.5 447.5,349.5C 447.5,320.833 447.5,292.167 447.5,263.5C 423.831,263.333 400.164,263.5 376.5,264C 377.661,292.095 377.828,320.261 377,348.5C 362.579,349.49 348.079,349.824 333.5,349.5C 332.167,284.167 332.167,218.833 333.5,153.5 Z"/></g>
<g><path style="opacity:1" fill="#1c1c1c" d="M 373.5,156.5 C 373.5,180.833 373.5,205.167 373.5,229.5C 399.5,229.5 425.5,229.5 451.5,229.5C 451.5,205.167 451.5,180.833 451.5,156.5C 463.833,156.5 476.167,156.5 488.5,156.5C 488.5,219.5 488.5,282.5 488.5,345.5C 476.167,345.5 463.833,345.5 451.5,345.5C 451.831,317.328 451.498,289.328 450.5,261.5C 424.833,260.167 399.167,260.167 373.5,261.5C 372.502,289.328 372.169,317.328 372.5,345.5C 360.5,345.5 348.5,345.5 336.5,345.5C 336.5,282.5 336.5,219.5 336.5,156.5C 348.833,156.5 361.167,156.5 373.5,156.5 Z"/></g>
<g><path style="opacity:0.998" fill="#ff672e" d="M 251.5,170.5 C 256.775,177.116 260.775,184.449 263.5,192.5C 262.778,192.082 262.278,191.416 262,190.5C 259.602,190.958 257.936,192.292 257,194.5C 255.796,193.529 255.296,192.529 255.5,191.5C 254.5,192.833 253.5,192.833 252.5,191.5C 251.522,191.977 250.689,192.643 250,193.5C 248.194,190.316 246.194,189.983 244,192.5C 240.61,189.847 237.943,190.514 236,194.5C 235.667,193.833 235.333,193.167 235,192.5C 232.35,192.382 229.85,193.382 227.5,195.5C 227.331,194.603 226.998,193.603 226.5,192.5C 224.236,193.304 222.236,192.637 220.5,190.5C 219.167,193.167 217.833,193.167 216.5,190.5C 215.893,190.624 215.56,190.957 215.5,191.5C 211.267,186.046 207.267,180.38 203.5,174.5C 203.393,172.621 203.893,172.288 205,173.5C 205.71,172.027 206.876,171.36 208.5,171.5C 208.351,172.552 208.517,173.552 209,174.5C 210.552,173.034 212.386,172.034 214.5,171.5C 216.163,172.875 217.497,172.542 218.5,170.5C 220.343,170.755 222.343,170.922 224.5,171C 223.044,171.423 222.544,172.256 223,173.5C 224,172.167 225,172.167 226,173.5C 226.388,172.572 227.055,171.905 228,171.5C 229.652,171.86 231.318,172.193 233,172.5C 233.667,171.833 234.333,171.167 235,170.5C 236.865,169.919 238.531,170.586 240,172.5C 241.895,171.311 243.895,170.311 246,169.5C 246.167,169.833 246.333,170.167 246.5,170.5C 245.624,171.251 244.624,171.751 243.5,172C 245.534,173.205 247.534,173.372 249.5,172.5C 248.515,170.902 248.349,169.235 249,167.5C 249.377,168.942 250.21,169.942 251.5,170.5 Z"/></g>
<g><path style="opacity:0.999" fill="#ff672e" d="M 48.5,168.5 C 50.1733,169.343 51.34,170.676 52,172.5C 52.3333,172.167 52.6667,171.833 53,171.5C 53.3333,172.5 53.6667,173.5 54,174.5C 54.7412,173.359 55.5745,173.359 56.5,174.5C 57.8834,171.924 58.7167,172.258 59,175.5C 60.117,174.051 60.7837,172.384 61,170.5C 61.9177,172.226 63.4177,173.893 65.5,175.5C 65.5,174.5 65.5,173.5 65.5,172.5C 66.4255,173.641 67.2588,173.641 68,172.5C 68.6914,174.891 69.6914,174.891 71,172.5C 72.3086,174.891 73.3086,174.891 74,172.5C 75.1545,173.743 76.4878,174.743 78,175.5C 81.2449,171.896 84.5782,171.896 88,175.5C 89.4579,174.253 90.9579,174.253 92.5,175.5C 94.8813,173.231 97.3813,173.231 100,175.5C 102.316,173.541 104.316,173.541 106,175.5C 107,173.833 108.333,172.5 110,171.5C 110.667,172.167 111.333,172.833 112,173.5C 112.741,172.359 113.575,172.359 114.5,173.5C 116.409,170.039 118.409,170.039 120.5,173.5C 115.522,181.137 110.188,188.47 104.5,195.5C 102.678,192.962 100.678,192.962 98.5,195.5C 96.8333,194.833 95.1667,194.167 93.5,193.5C 92.8076,194.025 92.3076,194.692 92,195.5C 91.0094,194.061 89.676,193.061 88,192.5C 87.3333,193.833 86.6667,193.833 86,192.5C 85.6667,193.167 85.3333,193.833 85,194.5C 84.6121,193.572 83.9454,192.905 83,192.5C 81.4411,193.029 79.9411,193.696 78.5,194.5C 77.8076,193.975 77.3076,193.308 77,192.5C 76.3333,193.833 75.6667,195.167 75,196.5C 73.7268,194.428 71.8935,193.095 69.5,192.5C 68.8076,193.025 68.3076,193.692 68,194.5C 67.6667,194.167 67.3333,193.833 67,193.5C 63.8049,195.419 60.4716,195.419 57,193.5C 55.4126,194.727 54.0793,194.394 53,192.5C 51.8455,193.743 50.5122,194.743 49,195.5C 48.3333,192.833 47.6667,192.833 47,195.5C 46.3333,194.833 45.6667,194.167 45,193.5C 44,194.5 43,195.5 42,196.5C 41.3292,195.748 40.4959,195.414 39.5,195.5C 42.5509,186.939 45.5509,177.939 48.5,168.5 Z"/></g>
<g><path style="opacity:0.595" fill="#f1efef" d="M 537.5,216.5 C 552.117,203.681 569.284,197.681 589,198.5C 625.158,198.389 648.825,215.389 660,249.5C 667.038,275.807 664.038,300.807 651,324.5C 647.399,328.726 643.899,333.06 640.5,337.5C 634.655,341.588 628.655,345.422 622.5,349C 610.491,352.12 598.657,354.287 587,355.5C 583.422,353.234 579.588,352.9 575.5,354.5C 567.47,352.322 559.47,349.822 551.5,347C 532.949,335.426 521.115,318.926 516,297.5C 512.11,276.39 514.443,256.057 523,236.5C 527.108,229.273 531.942,222.606 537.5,216.5 Z M 584.5,234.5 C 599.166,232.746 609.666,238.412 616,251.5C 622.806,271.959 621.473,291.292 612,309.5C 597.274,322.396 582.274,322.729 567,310.5C 560.762,302.289 557.596,292.955 557.5,282.5C 558.599,278.283 558.599,274.117 557.5,270C 557.6,267.698 558.267,265.698 559.5,264C 558.405,260.371 559.071,257.038 561.5,254C 561.167,253.667 560.833,253.333 560.5,253C 563.443,247.789 567.11,243.122 571.5,239C 575.715,236.763 580.048,235.263 584.5,234.5 Z"/></g>
<g><path style="opacity:0.593" fill="#f1eeee" d="M 909.5,198.5 C 932.409,196.525 952.243,203.192 969,218.5C 977.035,229.036 983.535,240.869 988.5,254C 988.043,254.414 987.709,254.914 987.5,255.5C 987.923,258.603 988.923,261.436 990.5,264C 990.145,272.568 989.479,281.568 988.5,291C 988.493,292.583 988.826,294.249 989.5,296C 987.699,296.317 987.366,296.984 988.5,298C 984.418,313.065 976.752,326.565 965.5,338.5C 958.729,344.22 951.063,348.387 942.5,351C 933.294,352.667 924.294,354.167 915.5,355.5C 904.572,354.215 893.572,352.048 882.5,349C 865.391,340.287 854.057,328.62 848.5,314C 836.399,286.666 837.399,259.499 851.5,232.5C 864.853,210.828 884.186,199.495 909.5,198.5 Z M 895.5,311.5 C 896.547,310.922 896.38,310.256 895,309.5C 894.601,309.728 894.435,310.062 894.5,310.5C 887.617,303.381 884.117,294.714 884,284.5C 883.152,272.678 884.485,261.344 888,250.5C 891.159,244.674 895.659,240.174 901.5,237C 911.967,233.177 922.301,233.844 932.5,239C 935.477,242.064 938.31,245.231 941,248.5C 942.972,254.201 944.805,260.201 946.5,266.5C 946.449,268.1 946.116,269.6 945.5,271C 946.72,272.525 947.387,274.359 947.5,276.5C 947.037,281.171 946.537,285.837 946,290.5C 944.233,299.545 940.4,307.045 934.5,313C 924.536,319.737 913.869,321.07 902.5,317C 899.734,315.629 897.401,313.796 895.5,311.5 Z"/></g>
<g><path style="opacity:0.546" fill="#f7f7f6" d="M 810.5,217.5 C 813.238,221.446 815.238,225.446 816.5,229.5C 817.741,234.431 818.575,239.431 819,244.5C 819.5,245 820,245.5 820.5,246C 819.67,280.095 819.17,314.262 819,348.5C 804.912,349.49 790.745,349.824 776.5,349.5C 776.461,317.046 776.461,285.046 776.5,253.5C 775.153,240.574 767.987,234.574 755,235.5C 739.994,235.335 731.161,242.668 728.5,257.5C 729.915,259.28 729.748,260.946 728,262.5C 727.5,291.498 727.333,320.498 727.5,349.5C 713.921,349.823 700.421,349.49 687,348.5C 686.5,300.168 686.333,251.834 686.5,203.5C 699.833,203.5 713.167,203.5 726.5,203.5C 726.334,208.844 726.501,214.177 727,219.5C 736.68,205.881 750.014,199.215 767,199.5C 784.276,199.193 798.776,205.193 810.5,217.5 Z"/></g>
<g><path style="opacity:1" fill="#1d1d1d" d="M 927.5,350.5 C 917.473,350.699 907.473,350.366 897.5,349.5C 885.748,347.641 875.415,342.808 866.5,335C 858.803,326.088 852.803,316.255 848.5,305.5C 848.59,302.848 847.924,300.515 846.5,298.5C 842.524,283.706 842.524,269.04 846.5,254.5C 847.924,252.485 848.59,250.152 848.5,247.5C 859.686,216.508 881.853,201.508 915,202.5C 956.293,202.784 979.96,223.45 986,264.5C 989.81,293.498 981.31,317.998 960.5,338C 950.527,344.825 939.527,348.992 927.5,350.5 Z M 895.5,311.5 C 896.547,310.922 896.38,310.256 895,309.5C 894.601,309.728 894.435,310.062 894.5,310.5C 887.617,303.381 884.117,294.714 884,284.5C 883.152,272.678 884.485,261.344 888,250.5C 891.159,244.674 895.659,240.174 901.5,237C 911.967,233.177 922.301,233.844 932.5,239C 935.477,242.064 938.31,245.231 941,248.5C 942.972,254.201 944.805,260.201 946.5,266.5C 946.449,268.1 946.116,269.6 945.5,271C 946.72,272.525 947.387,274.359 947.5,276.5C 947.037,281.171 946.537,285.837 946,290.5C 944.233,299.545 940.4,307.045 934.5,313C 924.536,319.737 913.869,321.07 902.5,317C 899.734,315.629 897.401,313.796 895.5,311.5 Z"/></g>
<g><path style="opacity:1" fill="#1d1d1d" d="M 598.5,350.5 C 587.759,350.814 577.092,350.147 566.5,348.5C 554.293,345.979 544.126,339.979 536,330.5C 517.77,306.14 512.77,279.14 521,249.5C 534.602,213.3 560.769,197.8 599.5,203C 618.531,203.597 633.697,211.43 645,226.5C 662.969,254.842 665.303,284.508 652,315.5C 640.641,337.02 622.807,348.687 598.5,350.5 Z M 584.5,234.5 C 580.048,235.263 575.715,236.763 571.5,239C 567.11,243.122 563.443,247.789 560.5,253C 560.833,253.333 561.167,253.667 561.5,254C 559.071,257.038 558.405,260.371 559.5,264C 558.267,265.698 557.6,267.698 557.5,270C 558.599,274.117 558.599,278.283 557.5,282.5C 557.596,292.955 560.762,302.289 567,310.5C 582.274,322.729 597.274,322.396 612,309.5C 621.473,291.292 622.806,271.959 616,251.5C 609.666,238.412 599.166,232.746 584.5,234.5 Z"/></g>
<g><path style="opacity:1" fill="#1c1c1c" d="M 815.5,245.5 C 815.5,278.833 815.5,312.167 815.5,345.5C 804.167,345.5 792.833,345.5 781.5,345.5C 781.667,315.165 781.5,284.832 781,254.5C 780.79,252.942 780.29,251.609 779.5,250.5C 776.487,237.055 767.987,230.721 754,231.5C 739.769,231.9 730.603,238.9 726.5,252.5C 725.011,256.236 724.344,260.236 724.5,264.5C 723.502,291.328 723.169,318.328 723.5,345.5C 712.5,345.5 701.5,345.5 690.5,345.5C 690.5,299.5 690.5,253.5 690.5,207.5C 701.167,207.5 711.833,207.5 722.5,207.5C 722.177,214.022 722.51,220.355 723.5,226.5C 725.371,226.141 726.871,225.141 728,223.5C 734.635,212.204 744.468,205.704 757.5,204C 775.992,200.839 792.158,205.339 806,217.5C 812.642,225.591 815.808,234.924 815.5,245.5 Z"/></g>
<g><path style="opacity:1" fill="#636363" d="M 723.5,226.5 C 722.51,220.355 722.177,214.022 722.5,207.5C 711.833,207.5 701.167,207.5 690.5,207.5C 690.5,253.5 690.5,299.5 690.5,345.5C 690.5,345.833 690.5,346.167 690.5,346.5C 689.501,300.003 689.168,253.336 689.5,206.5C 700.833,206.5 712.167,206.5 723.5,206.5C 723.5,213.167 723.5,219.833 723.5,226.5 Z"/></g>
<g><path style="opacity:0.996" fill="#ff5d26" d="M 263.5,192.5 C 267.199,198.058 270.533,203.892 273.5,210C 273.167,210.333 272.833,210.667 272.5,211C 274.69,214.576 276.69,218.243 278.5,222C 277.892,224.184 278.559,226.184 280.5,228C 280.272,228.399 279.938,228.565 279.5,228.5C 278.883,228.611 278.383,228.944 278,229.5C 276.654,226.751 275.32,226.417 274,228.5C 273.667,227.833 273.333,227.167 273,226.5C 272.333,227.833 271.667,227.833 271,226.5C 268.392,227.299 265.726,228.299 263,229.5C 262.333,224.833 260.333,224.167 257,227.5C 256.026,225.122 255.359,225.456 255,228.5C 254.581,227.328 253.915,226.328 253,225.5C 253.195,227.126 253.195,228.793 253,230.5C 251.514,228.422 249.514,227.089 247,226.5C 245.154,229.007 242.654,230.341 239.5,230.5C 239.5,232.167 239.5,233.833 239.5,235.5C 232.053,220.612 224.053,205.945 215.5,191.5C 215.56,190.957 215.893,190.624 216.5,190.5C 217.833,193.167 219.167,193.167 220.5,190.5C 222.236,192.637 224.236,193.304 226.5,192.5C 226.998,193.603 227.331,194.603 227.5,195.5C 229.85,193.382 232.35,192.382 235,192.5C 235.333,193.167 235.667,193.833 236,194.5C 237.943,190.514 240.61,189.847 244,192.5C 246.194,189.983 248.194,190.316 250,193.5C 250.689,192.643 251.522,191.977 252.5,191.5C 253.5,192.833 254.5,192.833 255.5,191.5C 255.296,192.529 255.796,193.529 257,194.5C 257.936,192.292 259.602,190.958 262,190.5C 262.278,191.416 262.778,192.082 263.5,192.5 Z"/></g>
<g><path style="opacity:0.998" fill="#ff5c25" d="M 104.5,195.5 C 96.9919,207.18 89.9919,219.18 83.5,231.5C 83.6495,230.448 83.4828,229.448 83,228.5C 81.0074,229.672 79.0074,230.672 77,231.5C 75.8869,230.289 74.7202,230.289 73.5,231.5C 73.1667,230.833 72.8333,230.167 72.5,229.5C 71.2519,230.04 70.0852,230.707 69,231.5C 68.3333,230.167 67.6667,228.833 67,227.5C 66.7787,230.943 65.7787,231.276 64,228.5C 63.6667,229.5 63.3333,230.5 63,231.5C 62,230.167 61,228.833 60,227.5C 59.6258,228.416 59.1258,229.25 58.5,230C 55.7658,230.21 53.2658,231.044 51,232.5C 50.4169,230.998 49.5836,229.665 48.5,228.5C 47.2888,229.274 47.2888,230.107 48.5,231C 46.8016,230.503 45.1349,230.67 43.5,231.5C 42.1076,230.395 40.941,229.061 40,227.5C 39.5983,228.872 39.0983,230.205 38.5,231.5C 37.7261,232.711 36.8928,232.711 36,231.5C 34.5415,233.432 33.3748,235.432 32.5,237.5C 32.8816,234.214 32.8816,230.714 32.5,227C 34.258,222.126 35.5913,217.126 36.5,212C 36.1667,211.667 35.8333,211.333 35.5,211C 36.796,206.155 38.4626,201.488 40.5,197C 39.944,196.617 39.6107,196.117 39.5,195.5C 40.4959,195.414 41.3292,195.748 42,196.5C 43,195.5 44,194.5 45,193.5C 45.6667,194.167 46.3333,194.833 47,195.5C 47.6667,192.833 48.3333,192.833 49,195.5C 50.5122,194.743 51.8455,193.743 53,192.5C 54.0793,194.394 55.4126,194.727 57,193.5C 60.4716,195.419 63.8049,195.419 67,193.5C 67.3333,193.833 67.6667,194.167 68,194.5C 68.3076,193.692 68.8076,193.025 69.5,192.5C 71.8935,193.095 73.7268,194.428 75,196.5C 75.6667,195.167 76.3333,193.833 77,192.5C 77.3076,193.308 77.8076,193.975 78.5,194.5C 79.9411,193.696 81.4411,193.029 83,192.5C 83.9454,192.905 84.6121,193.572 85,194.5C 85.3333,193.833 85.6667,193.167 86,192.5C 86.6667,193.833 87.3333,193.833 88,192.5C 89.676,193.061 91.0094,194.061 92,195.5C 92.3076,194.692 92.8076,194.025 93.5,193.5C 95.1667,194.167 96.8333,194.833 98.5,195.5C 100.678,192.962 102.678,192.962 104.5,195.5 Z"/></g>
<g><path style="opacity:0.004" fill="#fe9679" d="M 537.5,216.5 C 536.833,215.167 536.833,215.167 537.5,216.5 Z"/></g>
<g><path style="opacity:0.004" fill="#fe9679" d="M 810.5,216.5 C 811.833,217.167 811.833,217.167 810.5,216.5 Z"/></g>
<g><path style="opacity:1" fill="#bdbdbd" d="M 373.5,156.5 C 374.498,180.328 374.831,204.328 374.5,228.5C 399.833,228.5 425.167,228.5 450.5,228.5C 450.169,204.328 450.502,180.328 451.5,156.5C 451.5,180.833 451.5,205.167 451.5,229.5C 425.5,229.5 399.5,229.5 373.5,229.5C 373.5,205.167 373.5,180.833 373.5,156.5 Z"/></g>
<g><path style="opacity:0.999" fill="#ff541f" d="M 83.5,231.5 C 77.6116,244.821 74.945,258.821 75.5,273.5C 74.6753,269.353 74.1753,265.019 74,260.5C 69.2864,260.786 64.6198,260.786 60,260.5C 57.8024,262.375 55.969,262.375 54.5,260.5C 52.7811,263.048 51.4478,262.715 50.5,259.5C 50.3309,260.397 49.9976,261.397 49.5,262.5C 47.5992,258.622 45.7659,258.622 44,262.5C 43.6411,259.456 42.9745,259.122 42,261.5C 41,258.833 40,258.833 39,261.5C 37.3813,262.083 35.548,262.083 33.5,261.5C 32.8281,262.949 32.1614,264.282 31.5,265.5C 30.9838,258.095 30.6504,249.929 30.5,241C 31.9733,240.29 32.6399,239.124 32.5,237.5C 33.3748,235.432 34.5415,233.432 36,231.5C 36.8928,232.711 37.7261,232.711 38.5,231.5C 39.0983,230.205 39.5983,228.872 40,227.5C 40.941,229.061 42.1076,230.395 43.5,231.5C 45.1349,230.67 46.8016,230.503 48.5,231C 47.2888,230.107 47.2888,229.274 48.5,228.5C 49.5836,229.665 50.4169,230.998 51,232.5C 53.2658,231.044 55.7658,230.21 58.5,230C 59.1258,229.25 59.6258,228.416 60,227.5C 61,228.833 62,230.167 63,231.5C 63.3333,230.5 63.6667,229.5 64,228.5C 65.7787,231.276 66.7787,230.943 67,227.5C 67.6667,228.833 68.3333,230.167 69,231.5C 70.0852,230.707 71.2519,230.04 72.5,229.5C 72.8333,230.167 73.1667,230.833 73.5,231.5C 74.7202,230.289 75.8869,230.289 77,231.5C 79.0074,230.672 81.0074,229.672 83,228.5C 83.4828,229.448 83.6495,230.448 83.5,231.5 Z"/></g>
<g><path style="opacity:0.592" fill="#f3f0ef" d="M 623.5,287.5 C 621.976,290.916 620.976,294.583 620.5,298.5C 617.138,310.529 609.471,318.196 597.5,321.5C 590.058,321.778 582.724,321.112 575.5,319.5C 568.292,316.463 562.792,311.463 559,304.5C 557.259,299.946 555.926,295.279 555,290.5C 554.144,279.123 554.478,267.79 556,256.5C 562.579,236.286 576.412,228.119 597.5,232C 609.353,235.853 617.187,243.687 621,255.5C 623.273,266.027 624.106,276.694 623.5,287.5 Z M 584.5,234.5 C 580.048,235.263 575.715,236.763 571.5,239C 567.11,243.122 563.443,247.789 560.5,253C 560.833,253.333 561.167,253.667 561.5,254C 559.071,257.038 558.405,260.371 559.5,264C 558.267,265.698 557.6,267.698 557.5,270C 558.599,274.117 558.599,278.283 557.5,282.5C 557.596,292.955 560.762,302.289 567,310.5C 582.274,322.729 597.274,322.396 612,309.5C 621.473,291.292 622.806,271.959 616,251.5C 609.666,238.412 599.166,232.746 584.5,234.5 Z"/></g>
<g><path style="opacity:0.604" fill="#f0efee" d="M 949.5,264.5 C 950.146,276.354 949.146,288.021 946.5,299.5C 939.28,317.779 925.947,325.113 906.5,321.5C 892.97,317.466 884.804,308.466 882,294.5C 880.522,283.873 880.188,273.206 881,262.5C 887.321,235.584 903.821,226.084 930.5,234C 941.754,240.989 948.087,251.156 949.5,264.5 Z M 895.5,311.5 C 896.547,310.922 896.38,310.256 895,309.5C 894.601,309.728 894.435,310.062 894.5,310.5C 887.617,303.381 884.117,294.714 884,284.5C 883.152,272.678 884.485,261.344 888,250.5C 891.159,244.674 895.659,240.174 901.5,237C 911.967,233.177 922.301,233.844 932.5,239C 935.477,242.064 938.31,245.231 941,248.5C 942.972,254.201 944.805,260.201 946.5,266.5C 946.449,268.1 946.116,269.6 945.5,271C 946.72,272.525 947.387,274.359 947.5,276.5C 947.037,281.171 946.537,285.837 946,290.5C 944.233,299.545 940.4,307.045 934.5,313C 924.536,319.737 913.869,321.07 902.5,317C 899.734,315.629 897.401,313.796 895.5,311.5 Z"/></g>
<g><path style="opacity:0.999" fill="#ff521d" d="M 279.5,228.5 C 286.217,245.838 288.55,261.838 286.5,276.5C 285.747,270.259 285.08,264.259 284.5,258.5C 281.455,259.198 278.455,259.532 275.5,259.5C 274.184,256.972 273.017,256.972 272,259.5C 271.667,259.167 271.333,258.833 271,258.5C 270.751,259.624 270.251,260.624 269.5,261.5C 266.57,258.71 263.57,258.377 260.5,260.5C 257.419,260.086 254.253,260.086 251,260.5C 250.454,259.711 249.787,258.711 249,257.5C 248.667,258.5 248.333,259.5 248,260.5C 247.292,259.619 246.458,258.953 245.5,258.5C 244.276,250.602 242.276,242.935 239.5,235.5C 239.5,233.833 239.5,232.167 239.5,230.5C 242.654,230.341 245.154,229.007 247,226.5C 249.514,227.089 251.514,228.422 253,230.5C 253.195,228.793 253.195,227.126 253,225.5C 253.915,226.328 254.581,227.328 255,228.5C 255.359,225.456 256.026,225.122 257,227.5C 260.333,224.167 262.333,224.833 263,229.5C 265.726,228.299 268.392,227.299 271,226.5C 271.667,227.833 272.333,227.833 273,226.5C 273.333,227.167 273.667,227.833 274,228.5C 275.32,226.417 276.654,226.751 278,229.5C 278.383,228.944 278.883,228.611 279.5,228.5 Z"/></g>
<g><path style="opacity:1" fill="#7b7b7b" d="M 848.5,247.5 C 848.59,250.152 847.924,252.485 846.5,254.5C 846.41,251.848 847.076,249.515 848.5,247.5 Z"/></g>
<g><path style="opacity:1" fill="#626262" d="M 815.5,245.5 C 816.498,278.996 816.832,312.663 816.5,346.5C 804.167,346.5 791.833,346.5 779.5,346.5C 779.5,314.5 779.5,282.5 779.5,250.5C 780.29,251.609 780.79,252.942 781,254.5C 781.5,284.832 781.667,315.165 781.5,345.5C 792.833,345.5 804.167,345.5 815.5,345.5C 815.5,312.167 815.5,278.833 815.5,245.5 Z"/></g>
<g><path style="opacity:1" fill="#494949" d="M 373.5,261.5 C 373.5,289.833 373.5,318.167 373.5,346.5C 360.989,346.829 348.655,346.495 336.5,345.5C 348.5,345.5 360.5,345.5 372.5,345.5C 372.169,317.328 372.502,289.328 373.5,261.5 Z"/></g>
<g><path style="opacity:1" fill="#cecece" d="M 726.5,252.5 C 725.895,283.99 725.228,315.324 724.5,346.5C 724.5,319.167 724.5,291.833 724.5,264.5C 724.344,260.236 725.011,256.236 726.5,252.5 Z"/></g>
<g><path style="opacity:1" fill="#4d4d4d" d="M 724.5,264.5 C 724.5,291.833 724.5,319.167 724.5,346.5C 713.167,346.5 701.833,346.5 690.5,346.5C 690.5,346.167 690.5,345.833 690.5,345.5C 701.5,345.5 712.5,345.5 723.5,345.5C 723.169,318.328 723.502,291.328 724.5,264.5 Z"/></g>
<g><path style="opacity:1" fill="#6a6a6a" d="M 949.5,264.5 C 950.815,274.7 950.649,285.033 949,295.5C 948.8,297.32 947.966,298.653 946.5,299.5C 949.146,288.021 950.146,276.354 949.5,264.5 Z"/></g>
<g><path style="opacity:1" fill="#ff4412" d="M 286.5,276.5 C 285.817,284.445 283.817,291.945 280.5,299C 280.833,299.333 281.167,299.667 281.5,300C 280.067,302.173 278.734,304.34 277.5,306.5C 276.659,305.991 276.159,306.657 276,308.5C 275.385,306.884 274.385,305.551 273,304.5C 271.312,305.325 271.145,306.325 272.5,307.5C 271.975,308.192 271.308,308.692 270.5,309C 267.5,309.667 264.5,309.667 261.5,309C 263.645,307.182 263.645,305.682 261.5,304.5C 259.869,306.297 257.869,307.464 255.5,308C 254.167,308.667 254.167,309.333 255.5,310C 252.415,309.81 249.415,308.976 246.5,307.5C 245.158,308.902 244.324,308.569 244,306.5C 242.089,306.745 240.089,306.745 238,306.5C 237,307.167 236,307.833 235,308.5C 234.623,307.058 233.79,306.058 232.5,305.5C 236.663,298.527 240.163,291.194 243,283.5C 244.968,275.28 245.801,266.947 245.5,258.5C 246.458,258.953 247.292,259.619 248,260.5C 248.333,259.5 248.667,258.5 249,257.5C 249.787,258.711 250.454,259.711 251,260.5C 254.253,260.086 257.419,260.086 260.5,260.5C 263.57,258.377 266.57,258.71 269.5,261.5C 270.251,260.624 270.751,259.624 271,258.5C 271.333,258.833 271.667,259.167 272,259.5C 273.017,256.972 274.184,256.972 275.5,259.5C 278.455,259.532 281.455,259.198 284.5,258.5C 285.08,264.259 285.747,270.259 286.5,276.5 Z"/></g>
<g><path style="opacity:1" fill="#ff4512" d="M 75.5,273.5 C 76.8716,280.486 78.705,287.486 81,294.5C 83.767,299.035 86.267,303.701 88.5,308.5C 86.9081,309.602 86.0748,308.935 86,306.5C 85.0201,308.059 84.1867,309.726 83.5,311.5C 82.1861,310.687 81.0195,309.687 80,308.5C 78.984,309.634 78.3173,309.301 78,307.5C 76.9916,307.982 75.825,308.148 74.5,308C 74.6399,309.264 74.6399,310.431 74.5,311.5C 72.8662,311.032 71.6995,310.032 71,308.5C 70.6667,308.833 70.3333,309.167 70,309.5C 69.323,307.311 68.1563,306.978 66.5,308.5C 61.7482,306.085 61.0815,306.585 64.5,310C 63.1279,310.402 61.7946,310.902 60.5,311.5C 58.1164,307.967 55.2831,307.301 52,309.5C 51.0546,309.095 50.3879,308.428 50,307.5C 48.7052,308.841 48.2052,310.174 48.5,311.5C 46.2589,310.968 44.7589,309.635 44,307.5C 43.5357,308.094 43.369,308.761 43.5,309.5C 40.3964,304.529 38.0631,299.196 36.5,293.5C 36.2865,291.856 36.6198,290.356 37.5,289C 36.9056,288.536 36.2389,288.369 35.5,288.5C 34.9711,286.417 33.9711,284.583 32.5,283C 33.9348,280.733 33.6015,278.733 31.5,277C 32.0585,276.275 32.3918,275.442 32.5,274.5C 30.3855,271.705 30.0522,268.705 31.5,265.5C 32.1614,264.282 32.8281,262.949 33.5,261.5C 35.548,262.083 37.3813,262.083 39,261.5C 40,258.833 41,258.833 42,261.5C 42.9745,259.122 43.6411,259.456 44,262.5C 45.7659,258.622 47.5992,258.622 49.5,262.5C 49.9976,261.397 50.3309,260.397 50.5,259.5C 51.4478,262.715 52.7811,263.048 54.5,260.5C 55.969,262.375 57.8024,262.375 60,260.5C 64.6198,260.786 69.2864,260.786 74,260.5C 74.1753,265.019 74.6753,269.353 75.5,273.5 Z"/></g>
<g><path style="opacity:0.417" fill="#ff9975" d="M 35.5,288.5 C 36.2389,288.369 36.9056,288.536 37.5,289C 36.6198,290.356 36.2865,291.856 36.5,293.5C 35.7326,292.828 35.0659,291.995 34.5,291C 34.8836,290.049 35.2169,289.216 35.5,288.5 Z"/></g>
<g><path style="opacity:1" fill="#737373" d="M 623.5,287.5 C 623.326,290.874 622.826,294.207 622,297.5C 621.617,298.056 621.117,298.389 620.5,298.5C 620.976,294.583 621.976,290.916 623.5,287.5 Z"/></g>
<g><path style="opacity:1" fill="#818181" d="M 846.5,298.5 C 847.924,300.515 848.59,302.848 848.5,305.5C 847.076,303.485 846.41,301.152 846.5,298.5 Z"/></g>
<g><path style="opacity:1" fill="#9d9d9d" d="M 575.5,319.5 C 582.724,321.112 590.058,321.778 597.5,321.5C 591.681,322.653 585.681,322.819 579.5,322C 577.68,321.8 576.347,320.966 575.5,319.5 Z"/></g>
<g><path style="opacity:0.004" fill="#fe9679" d="M 270.5,322.5 C 271.833,323.167 271.833,323.167 270.5,322.5 Z"/></g>
<g><path style="opacity:0.994" fill="#ff3706" d="M 277.5,306.5 C 277.657,307.873 277.49,309.207 277,310.5C 274.046,314.075 271.879,318.075 270.5,322.5C 250.372,351.473 223.705,369.806 190.5,377.5C 162.351,384.248 134.351,381.748 106.5,370C 99.5122,366.841 92.8455,363.174 86.5,359C 78.0311,353.297 70.6978,347.13 64.5,340.5C 59.3412,333.843 54.0078,327.343 48.5,321C 48.8333,320.667 49.1667,320.333 49.5,320C 46.589,317.01 44.589,313.51 43.5,309.5C 43.369,308.761 43.5357,308.094 44,307.5C 44.7589,309.635 46.2589,310.968 48.5,311.5C 48.2052,310.174 48.7052,308.841 50,307.5C 50.3879,308.428 51.0546,309.095 52,309.5C 55.2831,307.301 58.1164,307.967 60.5,311.5C 61.7946,310.902 63.1279,310.402 64.5,310C 61.0815,306.585 61.7482,306.085 66.5,308.5C 68.1563,306.978 69.323,307.311 70,309.5C 70.3333,309.167 70.6667,308.833 71,308.5C 71.6995,310.032 72.8662,311.032 74.5,311.5C 74.6399,310.431 74.6399,309.264 74.5,308C 75.825,308.148 76.9916,307.982 78,307.5C 78.3173,309.301 78.984,309.634 80,308.5C 81.0195,309.687 82.1861,310.687 83.5,311.5C 84.1867,309.726 85.0201,308.059 86,306.5C 86.0748,308.935 86.9081,309.602 88.5,308.5C 101.207,325.196 117.874,335.863 138.5,340.5C 144.441,341.911 150.608,342.577 157,342.5C 160.683,342.499 164.183,342.165 167.5,341.5C 194.029,338.073 215.696,326.073 232.5,305.5C 233.79,306.058 234.623,307.058 235,308.5C 236,307.833 237,307.167 238,306.5C 240.089,306.745 242.089,306.745 244,306.5C 244.324,308.569 245.158,308.902 246.5,307.5C 249.415,308.976 252.415,309.81 255.5,310C 254.167,309.333 254.167,308.667 255.5,308C 257.869,307.464 259.869,306.297 261.5,304.5C 263.645,305.682 263.645,307.182 261.5,309C 264.5,309.667 267.5,309.667 270.5,309C 271.308,308.692 271.975,308.192 272.5,307.5C 271.145,306.325 271.312,305.325 273,304.5C 274.385,305.551 275.385,306.884 276,308.5C 276.159,306.657 276.659,305.991 277.5,306.5 Z"/></g>
<g><path style="opacity:0.004" fill="#fe9679" d="M 64.5,340.5 C 63.8333,341.167 63.8333,341.167 64.5,340.5 Z"/></g>
<g><path style="opacity:1" fill="#ff6f35" d="M 138.5,340.5 C 148.151,341.199 157.817,341.532 167.5,341.5C 164.183,342.165 160.683,342.499 157,342.5C 150.608,342.577 144.441,341.911 138.5,340.5 Z"/></g>
<g><path style="opacity:1" fill="#676767" d="M 450.5,261.5 C 451.498,289.328 451.831,317.328 451.5,345.5C 463.833,345.5 476.167,345.5 488.5,345.5C 476.011,346.495 463.344,346.829 450.5,346.5C 450.5,318.167 450.5,289.833 450.5,261.5 Z"/></g>
<g><path style="opacity:0.004" fill="#fe9679" d="M 333.5,349.5 C 332.833,350.167 332.833,350.167 333.5,349.5 Z"/></g>
<g><path style="opacity:1" fill="#707070" d="M 566.5,348.5 C 577.092,350.147 587.759,350.814 598.5,350.5C 591.011,351.656 583.345,351.822 575.5,351C 572.203,350.796 569.203,349.963 566.5,348.5 Z"/></g>
<g><path style="opacity:1" fill="#777777" d="M 897.5,349.5 C 907.473,350.366 917.473,350.699 927.5,350.5C 919.01,351.657 910.343,351.824 901.5,351C 899.942,350.79 898.609,350.29 897.5,349.5 Z"/></g>
</svg>
