<?xml version="1.0" encoding="UTF-8"?>
<!DOCTYPE svg PUBLIC "-//W3C//DTD SVG 1.1//EN" "http://www.w3.org/Graphics/SVG/1.1/DTD/svg11.dtd">
<svg xmlns="http://www.w3.org/2000/svg" version="1.1" width="1026px" height="1025px" style="shape-rendering:geometricPrecision; text-rendering:geometricPrecision; image-rendering:optimizeQuality; fill-rule:evenodd; clip-rule:evenodd" xmlns:xlink="http://www.w3.org/1999/xlink">
<g><path style="opacity:0.995" fill="#6db33e" d="M 467.5,-0.5 C 496.167,-0.5 524.833,-0.5 553.5,-0.5C 680.626,11.903 788.959,63.2364 878.5,153.5C 900.649,124.223 918.982,92.5568 933.5,58.5C 969.597,161.22 997.097,266.22 1016,373.5C 1020.24,401.532 1023.41,429.532 1025.5,457.5C 1025.5,479.833 1025.5,502.167 1025.5,524.5C 1018.09,676.464 957.76,802.631 844.5,903C 757.399,975.527 657.065,1016.03 543.5,1024.5C 522.833,1024.5 502.167,1024.5 481.5,1024.5C 320.344,1011.19 191.51,940.191 95,811.5C 40.5846,735.103 8.75131,650.103 -0.5,556.5C -0.5,525.833 -0.5,495.167 -0.5,464.5C 18.4455,299.545 96.4455,171.045 233.5,79C 305.151,33.8384 383.151,7.33842 467.5,-0.5 Z M 927.5,113.5 C 958.914,202.159 981.414,293.159 995,386.5C 1002.37,443.061 1003.37,499.727 998,556.5C 991.282,620.669 969.949,679.336 934,732.5C 901.363,776.785 859.196,808.618 807.5,828C 773.83,840.417 739.163,848.751 703.5,853C 678.593,856.159 653.593,858.159 628.5,859C 595.167,859.667 561.833,859.667 528.5,859C 473.184,856.832 417.85,856.165 362.5,857C 343.774,858.54 325.108,860.206 306.5,862C 333.866,851.544 361.532,841.878 389.5,833C 430.017,820.939 470.35,808.272 510.5,795C 586.251,767.837 653.251,726.837 711.5,672C 770.658,617.485 817.492,553.985 852,481.5C 867.321,448.205 877.987,413.538 884,377.5C 860.465,438.638 826.798,493.305 783,541.5C 686.682,646.113 568.849,714.946 429.5,748C 368.165,763.967 306.498,778.467 244.5,791.5C 210.69,775.189 186.19,749.856 171,715.5C 140.881,633.241 149.547,555.241 197,481.5C 238.956,423.395 294.789,384.895 364.5,366C 386.185,360.275 408.185,356.275 430.5,354C 471.134,350.868 511.801,348.202 552.5,346C 678.195,335.06 784.695,284.56 872,194.5C 894.473,170.221 912.973,143.221 927.5,113.5 Z M 199.5,820.5 C 227.83,821.33 243.497,835.83 246.5,864C 242.407,893.766 225.407,907.766 195.5,906C 168.812,897.964 157.645,880.13 162,852.5C 168.083,834.222 180.583,823.555 199.5,820.5 Z"/></g>
</svg>
